<?xml version="1.0" encoding="UTF-8"?>
<svg version="1.1" xmlns="http://www.w3.org/2000/svg" width="500" height="500">
<path d="M0 0 C5.86168201 4.69313841 11.07542494 9.61026665 15.76171875 15.4765625 C16.37144531 16.21132812 16.98117188 16.94609375 17.609375 17.703125 C21.84073864 22.8682488 25.77275576 28.22058677 29.62817383 33.66821289 C37.99206444 45.47522535 46.62730115 57.08635857 55.484375 68.52734375 C60.37123369 74.85595149 65.14500796 81.26849536 69.875 87.71484375 C76.22037381 96.36130728 82.62162774 104.95694501 89.13671875 113.4765625 C98.21812936 125.35602935 98.21812936 125.35602935 102.55029297 131.39648438 C105.52516997 135.53989885 108.51287382 139.67400516 111.5 143.80859375 C112.10283813 144.64314087 112.70567627 145.47768799 113.32678223 146.33752441 C114.80502155 148.38392308 116.28333576 150.43026762 117.76171875 152.4765625 C117.7650289 151.74879671 117.76833904 151.02103092 117.7717495 150.27121162 C117.85309521 132.53408314 117.9452253 114.79704038 118.04924583 97.06002998 C118.09929212 88.4824208 118.14573573 79.90482079 118.18359375 71.32714844 C118.21661365 63.84776778 118.25649957 56.36846004 118.30450881 48.88916004 C118.32967475 44.93173683 118.35148483 40.97436137 118.36506271 37.01688004 C118.37797354 33.28551664 118.40012333 29.55431784 118.42910194 25.82304573 C118.44237428 23.81397311 118.44608169 21.80484428 118.44941711 19.79573059 C118.54936694 8.89984657 119.05766477 -2.27935474 126.7421875 -10.69140625 C133.58528347 -17.15760193 140.76054284 -20.49024516 150.29296875 -20.54296875 C170.88799087 -19.46862212 187.45110968 -11.57988978 201.8515625 3.25 C217.96920056 22.03743087 222.07916394 45.15804339 222.03637695 69.1328125 C222.04073511 70.76566295 222.04592189 72.39851136 222.05186462 74.03135681 C222.0651531 78.43064046 222.06584428 82.82983765 222.06330132 87.22913742 C222.06222381 90.92350025 222.06713521 94.61784615 222.07190675 98.31220531 C222.08296875 107.04425028 222.08345925 115.77625222 222.07739258 124.50830078 C222.0713672 133.46105054 222.08363486 142.41364257 222.10496265 151.36636543 C222.12269292 159.09853668 222.12856182 166.83065827 222.1253249 174.56284904 C222.12352861 179.16043263 222.12597918 183.75790391 222.14003944 188.35546875 C222.33212371 257.03332865 222.33212371 257.03332865 200.8828125 279.48535156 C190.7671851 289.64947854 178.79913343 296.68093704 164.16992188 296.79882812 C163.27208984 296.79560547 162.37425781 296.79238281 161.44921875 296.7890625 C160.56298828 296.80517578 159.67675781 296.82128906 158.76367188 296.83789062 C146.87252651 296.84656396 137.5290064 293.03788922 128.96484375 284.734375 C127.14005728 282.70973096 125.44754944 280.61868207 123.76171875 278.4765625 C122.9521875 277.46722656 122.14265625 276.45789063 121.30859375 275.41796875 C115.74203581 268.43548089 110.36790315 261.31420282 105.03027344 254.15600586 C101.75261874 249.76929419 98.38853399 245.47011555 94.94140625 241.21484375 C92.05766257 237.59207616 89.25479363 233.9100226 86.44921875 230.2265625 C81.98968648 224.3725853 77.48663954 218.55804768 72.92431641 212.78393555 C69.34164064 208.23937658 65.8279745 203.64463475 62.32421875 199.0390625 C57.71135606 192.97731836 53.00294576 187.00560971 48.21777344 181.0793457 C44.03310123 175.87198381 40.03394158 170.53759142 36.05053711 165.17553711 C33.20839816 161.36348036 30.3014072 157.63514248 27.26171875 153.9765625 C23.67647873 149.66135469 20.29356675 145.22840446 16.94921875 140.7265625 C12.46364699 134.69071418 7.85349379 128.77765467 3.1328125 122.92431641 C-0.99211401 117.80479413 -5.01364302 112.61246414 -9.0078125 107.390625 C-10.90652495 104.90999542 -12.81701525 102.43972404 -14.73828125 99.9765625 C-17.08066415 96.97196387 -19.40813553 93.95641961 -21.72631836 90.93310547 C-23.44581855 88.69299823 -25.1717693 86.45788421 -26.89697266 84.22216797 C-28.2512662 82.45966363 -29.59450668 80.68909264 -30.9375 78.91796875 C-41.6820986 63.74692979 -41.6820986 63.74692979 -57.046875 54.70703125 C-62.51514819 54.13193656 -66.680074 54.69745887 -71.61328125 57.1640625 C-75.50157429 60.58946352 -77.24842069 64.46062067 -78.23828125 69.4765625 C-78.33582379 71.56382432 -78.3774814 73.65392941 -78.38545227 75.74345398 C-78.39260757 77.03172592 -78.39976288 78.31999786 -78.40713501 79.64730835 C-78.4099751 81.07305884 -78.41268685 82.49880959 -78.4152832 83.92456055 C-78.42155054 85.42777157 -78.42819758 86.93098105 -78.43519592 88.43418884 C-78.45620806 93.3688754 -78.46659621 98.30356216 -78.4765625 103.23828125 C-78.48061124 104.9394056 -78.48472819 106.6405298 -78.48891258 108.34165382 C-78.50795865 116.33521116 -78.52219044 124.32875929 -78.53052455 132.32233495 C-78.54029265 141.53826587 -78.56660339 150.75395634 -78.60702544 159.96980256 C-78.63722369 167.10032783 -78.65199697 174.23078433 -78.65530556 181.36137229 C-78.65765197 185.61671712 -78.66655878 189.8718049 -78.69176674 194.12708092 C-78.71511737 198.13349365 -78.71925286 202.13948135 -78.70900536 206.1459446 C-78.70851156 207.61122174 -78.71478561 209.07652031 -78.7285614 210.54173279 C-78.80542525 219.20631045 -78.80586289 227.36241802 -72.75500965 234.13732433 C-67.46326026 238.80982387 -59.63770246 237.7736961 -53.05078125 237.7265625 C-51.95830078 237.73429687 -50.86582031 237.74203125 -49.74023438 237.75 C-48.69416016 237.74742187 -47.64808594 237.74484375 -46.5703125 237.7421875 C-45.14295776 237.73880371 -45.14295776 237.73880371 -43.68676758 237.73535156 C-40.98211991 237.64102392 -40.98211991 237.64102392 -38.23828125 235.4765625 C-37.05381241 231.92315598 -37.06259372 228.67573803 -37.03295898 224.97583008 C-37.02305939 224.21461349 -37.01315979 223.45339691 -37.00296021 222.66911316 C-36.97137396 220.15313832 -36.94659916 217.63714461 -36.921875 215.12109375 C-36.90130299 213.37659718 -36.88030645 211.63210557 -36.85890198 209.88761902 C-36.80370683 205.29603083 -36.75428626 200.70439785 -36.70605469 196.11273193 C-36.65582101 191.42732761 -36.60014468 186.74198833 -36.54492188 182.05664062 C-36.43737157 172.86333682 -36.33591963 163.66997654 -36.23828125 154.4765625 C-32.22728481 156.28782805 -30.50885361 158.44661905 -27.92578125 162.0390625 C-27.20777344 163.03035156 -26.48976562 164.02164063 -25.75 165.04296875 C-25.16520874 165.85096924 -25.16520874 165.85096924 -24.56860352 166.67529297 C-21.86708442 170.3331766 -19.0411131 173.896149 -16.23828125 177.4765625 C-15.10632977 178.92934395 -13.97481257 180.38246388 -12.84375 181.8359375 C-12.28598877 182.55233398 -11.72822754 183.26873047 -11.15356445 184.00683594 C-6.43609277 190.06749053 -1.7242295 196.13187643 2.94921875 202.2265625 C6.37462586 206.69082258 9.83854003 211.121939 13.32421875 215.5390625 C16.86227218 220.03125388 20.37414244 224.54134467 23.82421875 229.1015625 C24.53707031 230.04257812 25.24992188 230.98359375 25.984375 231.953125 C29.11181026 236.39339572 30.01440828 239.20047425 30.05224609 244.69458008 C30.0650058 245.95301224 30.0777655 247.2114444 30.09091187 248.50801086 C30.09396995 249.87903693 30.09619748 251.25006505 30.09765625 252.62109375 C30.10408723 254.03350458 30.11081582 255.44591408 30.11782837 256.85832214 C30.12979461 259.81809576 30.13350998 262.77775273 30.13232422 265.73754883 C30.1321213 269.5170768 30.15939749 273.29585057 30.19386864 277.07520008 C30.21618772 279.9930103 30.22016021 282.91064063 30.21910477 285.82852745 C30.2214542 287.22110271 30.23024056 288.61368343 30.2457695 290.00617409 C30.33335504 298.67286679 30.23412562 304.38636382 24.38247013 311.04633236 C18.98327639 315.8108445 11.04121581 315.91733727 4.21313477 315.88061523 C2.85001915 315.89091011 2.85001915 315.89091011 1.45936584 315.90141296 C-1.52204376 315.91959536 -4.50292222 315.9158524 -7.484375 315.91015625 C-9.58073596 315.91472521 -11.67709543 315.9200329 -13.77345276 315.92604065 C-18.16372768 315.9349574 -22.55382062 315.93256855 -26.9440918 315.92260742 C-32.52153159 315.91117555 -38.09833277 315.93124782 -43.67568874 315.96052456 C-48.00765364 315.97904191 -52.33947029 315.97856252 -56.67146492 315.97288704 C-58.72479199 315.97273542 -60.77813016 315.97864564 -62.83141899 315.99117851 C-89.85993697 316.13281721 -112.10905085 310.10170289 -132.91015625 291.921875 C-134.23828125 290.4765625 -134.23828125 290.4765625 -134.23828125 288.4765625 C-135.22828125 288.1465625 -136.21828125 287.8165625 -137.23828125 287.4765625 C-138.82563034 285.41954833 -140.23232583 283.4159456 -141.61328125 281.2265625 C-142.01248779 280.59395508 -142.41169434 279.96134766 -142.82299805 279.30957031 C-154.96964838 259.49746219 -156.38523565 236.69517066 -156.39941406 214.06591797 C-156.40405157 212.32835283 -156.40907746 210.5907887 -156.41445923 208.85322571 C-156.42749466 204.16073689 -156.43401064 199.46826233 -156.43846989 194.77575827 C-156.44141475 191.83526644 -156.4455221 188.89477839 -156.44997406 185.95428848 C-156.46362511 176.72841152 -156.47330367 167.50254334 -156.47717595 158.27665699 C-156.48165219 147.67426617 -156.49919009 137.07200457 -156.52817655 126.46965301 C-156.54988083 118.24163013 -156.55988486 110.01364337 -156.56121707 101.7855922 C-156.56225877 96.88628595 -156.56802996 91.98710155 -156.58603668 87.08782578 C-156.60266976 82.47316129 -156.60460003 77.85870829 -156.59589767 73.24402428 C-156.5951354 71.56441488 -156.59936098 69.88479338 -156.60935593 68.20521355 C-156.68677157 54.36841601 -156.1042743 39.6367234 -149.92578125 26.9765625 C-149.61946777 26.31769043 -149.3131543 25.65881836 -148.99755859 24.97998047 C-144.45868443 15.44857979 -138.43474273 8.13237259 -131.23828125 0.4765625 C-130.696875 -0.1525 -130.15546875 -0.7815625 -129.59765625 -1.4296875 C-119.76427194 -12.35567007 -103.94835858 -18.28530506 -89.80078125 -20.7734375 C-88.37560181 -21.02601318 -88.37560181 -21.02601318 -86.92163086 -21.28369141 C-56.05492898 -26.35492482 -24.63262187 -19.32174815 0 0 Z " fill="#0D90FD" transform="translate(217.23828125,103.5234375)"/>
<path d="M0 0 C18.67524336 14.01441339 28.72511058 33.67712402 32.16565514 56.55290222 C32.94209393 63.35920019 32.88452162 70.15606954 32.87231445 76.99609375 C32.87667261 78.6289442 32.88185939 80.26179261 32.88780212 81.89463806 C32.9010906 86.29392171 32.90178178 90.6931189 32.89923882 95.09241867 C32.89816131 98.7867815 32.90307271 102.4811274 32.90784425 106.17548656 C32.91890625 114.90753153 32.91939675 123.63953347 32.91333008 132.37158203 C32.9073047 141.32433179 32.91957236 150.27692382 32.94090015 159.22964668 C32.95863042 166.96181793 32.96449932 174.69393952 32.9612624 182.42613029 C32.95946611 187.02371388 32.96191668 191.62118516 32.97597694 196.21875 C33.16806121 264.8966099 33.16806121 264.8966099 11.71875 287.34863281 C1.6031226 297.51275979 -10.36492907 304.54421829 -24.99414062 304.66210938 C-25.89197266 304.65888672 -26.78980469 304.65566406 -27.71484375 304.65234375 C-28.60107422 304.66845703 -29.48730469 304.68457031 -30.40039062 304.70117188 C-38.97157471 304.70742365 -46.79509333 303.11003551 -53.77734375 297.90234375 C-54.56882812 297.32613281 -55.3603125 296.74992187 -56.17578125 296.15625 C-58.41688316 294.32798265 -60.46762596 292.49100257 -62.40234375 290.33984375 C-62.40234375 289.67984375 -62.40234375 289.01984375 -62.40234375 288.33984375 C-58.96482368 289.86763045 -56.21280687 291.84165431 -53.40234375 294.33984375 C-53.40234375 294.99984375 -53.40234375 295.65984375 -53.40234375 296.33984375 C-52.59796875 296.60796875 -51.79359375 296.87609375 -50.96484375 297.15234375 C-49.03279971 297.79635843 -47.10165743 298.44323764 -45.17578125 299.10546875 C-44.40492188 299.3684375 -43.6340625 299.63140625 -42.83984375 299.90234375 C-42.11667969 300.15113281 -41.39351563 300.39992188 -40.6484375 300.65625 C-28.51806885 304.34810133 -16.73595707 302.5977056 -5.40234375 297.33984375 C-2.59375008 295.36728189 0.03485736 293.46544153 1.59765625 290.33984375 C2.25765625 290.33984375 2.91765625 290.33984375 3.59765625 290.33984375 C3.59765625 289.67984375 3.59765625 289.01984375 3.59765625 288.33984375 C4.36078125 288.15421875 5.12390625 287.96859375 5.91015625 287.77734375 C9.67350366 285.76439048 10.13466968 283.24114128 11.59765625 279.33984375 C12.25765625 278.67984375 12.91765625 278.01984375 13.59765625 277.33984375 C14.58765625 277.33984375 15.57765625 277.33984375 16.59765625 277.33984375 C16.57703125 276.57671875 16.55640625 275.81359375 16.53515625 275.02734375 C16.59765625 272.33984375 16.59765625 272.33984375 17.59765625 269.33984375 C17.93993042 268.00877753 18.27517368 266.67584296 18.59765625 265.33984375 C19.58765625 265.66984375 20.57765625 265.99984375 21.59765625 266.33984375 C21.59765625 265.01984375 21.59765625 263.69984375 21.59765625 262.33984375 C22.25765625 262.33984375 22.91765625 262.33984375 23.59765625 262.33984375 C25.80715457 257.92954592 25.83472105 253.85044051 25.72265625 249.02734375 C25.71363281 248.28677734 25.70460938 247.54621094 25.6953125 246.78320312 C25.67189838 244.96860908 25.6360324 243.15418304 25.59765625 241.33984375 C26.25765625 241.00984375 26.91765625 240.67984375 27.59765625 240.33984375 C28.66115154 234.76401965 28.66115154 234.76401965 27.59765625 229.33984375 C27.83708494 227.54623793 28.07926148 225.7529719 28.33224297 223.96122742 C28.93762893 217.982066 28.72645612 211.93296489 28.71118164 205.92773438 C28.71089924 204.36992393 28.71105854 202.81211335 28.71162415 201.25430298 C28.71191004 197.04415541 28.70604697 192.83403656 28.69905019 188.62389565 C28.69278198 184.21699801 28.69221011 179.81009965 28.69102478 175.40319824 C28.68792167 167.06653964 28.67972206 158.72989422 28.66967529 150.39324141 C28.65848243 140.89867969 28.65299571 131.40411734 28.64797986 121.90955067 C28.63753858 102.38630757 28.61995894 82.86307672 28.59765625 63.33984375 C27.11265625 62.84484375 27.11265625 62.84484375 25.59765625 62.33984375 C25.59765625 60.68984375 25.59765625 59.03984375 25.59765625 57.33984375 C26.25765625 57.33984375 26.91765625 57.33984375 27.59765625 57.33984375 C27.26636719 56.81132812 26.93507813 56.2828125 26.59375 55.73828125 C25.31220858 52.65253054 25.50891741 50.2920982 25.66015625 46.96484375 C25.73425187 41.85794567 25.49354588 38.6836782 22.59765625 34.33984375 C20.29993594 30.43988169 18.14941775 26.60718786 16.59765625 22.33984375 C14.61765625 22.99984375 12.63765625 23.65984375 10.59765625 24.33984375 C9.34765625 16.71484375 9.34765625 16.71484375 11.59765625 13.33984375 C10.93765625 13.33984375 10.27765625 13.33984375 9.59765625 13.33984375 C9.59765625 12.67984375 9.59765625 12.01984375 9.59765625 11.33984375 C9.02015625 11.05109375 8.44265625 10.76234375 7.84765625 10.46484375 C6.4059655 9.74399837 4.96805812 9.01550532 3.53515625 8.27734375 C1.4635545 7.22372426 1.4635545 7.22372426 -1.40234375 6.33984375 C-2.06234375 6.66984375 -2.72234375 6.99984375 -3.40234375 7.33984375 C-2.90734375 5.85484375 -2.90734375 5.85484375 -2.40234375 4.33984375 C-3.06234375 4.00984375 -3.72234375 3.67984375 -4.40234375 3.33984375 C-4.73234375 3.99984375 -5.06234375 4.65984375 -5.40234375 5.33984375 C-5.07234375 3.68984375 -4.74234375 2.03984375 -4.40234375 0.33984375 C-6.05234375 0.33984375 -7.70234375 0.33984375 -9.40234375 0.33984375 C-9.40234375 -0.65015625 -9.40234375 -1.64015625 -9.40234375 -2.66015625 C-12.32780815 -2.88376305 -12.32780815 -2.88376305 -14.40234375 -1.66015625 C-14.89734375 -3.14515625 -14.89734375 -3.14515625 -15.40234375 -4.66015625 C-18.2855315 -5.8435102 -18.2855315 -5.8435102 -21.40234375 -6.66015625 C-22.39234375 -6.99015625 -23.38234375 -7.32015625 -24.40234375 -7.66015625 C-27.43753814 -7.69003861 -30.45848108 -7.59398099 -33.4921875 -7.5 C-36.39116358 -7.65954097 -37.95798002 -8.15819781 -40.40234375 -9.66015625 C-41.06234375 -9.00015625 -41.72234375 -8.34015625 -42.40234375 -7.66015625 C-43.06234375 -7.66015625 -43.72234375 -7.66015625 -44.40234375 -7.66015625 C-45.39234375 -7.00015625 -46.38234375 -6.34015625 -47.40234375 -5.66015625 C-47.40234375 -6.32015625 -47.40234375 -6.98015625 -47.40234375 -7.66015625 C-48.16546875 -7.35078125 -48.92859375 -7.04140625 -49.71484375 -6.72265625 C-51.59024052 -5.98122032 -53.48919027 -5.29787408 -55.40234375 -4.66015625 C-54.90734375 -2.18515625 -54.90734375 -2.18515625 -54.40234375 0.33984375 C-56.87734375 -0.65015625 -56.87734375 -0.65015625 -59.40234375 -1.66015625 C-60.60862383 0.67198523 -61.56781755 2.83626514 -62.40234375 5.33984375 C-63.06234375 5.33984375 -63.72234375 5.33984375 -64.40234375 5.33984375 C-64.07234375 5.85546875 -63.74234375 6.37109375 -63.40234375 6.90234375 C-62.01734652 10.27827449 -62.02725594 12.71399491 -62.40234375 16.33984375 C-63.70641259 18.35904712 -65.04057794 20.35909348 -66.40234375 22.33984375 C-67.42930181 26.72686129 -67.42930181 26.72686129 -66.92214966 31.12298584 C-66.20747284 34.17092532 -66.27497656 37.05461974 -66.27294922 40.18457031 C-66.2711969 40.86480759 -66.26944458 41.54504486 -66.26763916 42.24589539 C-66.26324477 44.49077928 -66.26615146 46.73558408 -66.26953125 48.98046875 C-66.26885721 50.54742447 -66.26788634 52.11438009 -66.26663208 53.68133545 C-66.26515811 56.96644079 -66.26729885 60.25151892 -66.27197266 63.53662109 C-66.27765093 67.73053293 -66.27440113 71.9243805 -66.26840019 76.11828995 C-66.26477036 79.35608394 -66.26594459 82.59386294 -66.26852798 85.83165741 C-66.26919154 87.37688963 -66.26838895 88.92212324 -66.26604843 90.46735382 C-66.26348412 92.63745167 -66.26741599 94.80744864 -66.27294922 96.97753906 C-66.27374481 98.20901672 -66.27454041 99.44049438 -66.27536011 100.70928955 C-66.36979555 103.40926703 -66.57658591 105.92361308 -66.93728638 108.58758545 C-67.42099534 112.49033185 -67.01479445 115.47217563 -66.40234375 119.33984375 C-66.25357932 122.54890506 -66.26017381 125.75283793 -66.27734375 128.96484375 C-66.27927734 129.84495117 -66.28121094 130.72505859 -66.28320312 131.63183594 C-66.32292971 137.6636552 -66.62899073 143.62851939 -67.18359375 149.63671875 C-67.37954141 152.05807202 -67.43830121 154.41271508 -67.40234375 156.83984375 C-67.40234375 159.86888921 -67.6710261 162.41457315 -68.40234375 165.33984375 C-72.38871797 163.78908032 -74.42903453 161.24577545 -77.08984375 157.96484375 C-78.27126953 156.53011719 -78.27126953 156.53011719 -79.4765625 155.06640625 C-81.22159226 152.5957556 -81.80629101 151.20348845 -82.40234375 148.33984375 C-84.38612045 147.05547641 -84.38612045 147.05547641 -86.40234375 146.33984375 C-86.40234375 145.67984375 -86.40234375 145.01984375 -86.40234375 144.33984375 C-87.06234375 144.33984375 -87.72234375 144.33984375 -88.40234375 144.33984375 C-89.09933927 142.88602478 -89.78468241 141.42661422 -90.46484375 139.96484375 C-91.03912109 138.74667969 -91.03912109 138.74667969 -91.625 137.50390625 C-91.88152344 136.78976563 -92.13804687 136.075625 -92.40234375 135.33984375 C-91.90734375 134.34984375 -91.90734375 134.34984375 -91.40234375 133.33984375 C-89.1886032 136.14812398 -86.98239782 138.9622395 -84.77734375 141.77734375 C-84.15988281 142.56044922 -83.54242188 143.34355469 -82.90625 144.15039062 C-82.29394531 144.93349609 -81.68164062 145.71660156 -81.05078125 146.5234375 C-80.49567871 147.23040771 -79.94057617 147.93737793 -79.36865234 148.66577148 C-77.5980707 151.07366579 -75.93237912 153.51769034 -74.27944946 156.00697327 C-73.74031733 156.81815644 -73.20118519 157.62933962 -72.64571571 158.4651041 C-72.23540297 159.08376819 -71.82509022 159.70243227 -71.40234375 160.33984375 C-71.3990336 159.61207796 -71.39572346 158.88431217 -71.392313 158.13449287 C-71.31096729 140.39736439 -71.2188372 122.66032163 -71.11481667 104.92331123 C-71.06477038 96.34570205 -71.01832677 87.76810204 -70.98046875 79.19042969 C-70.94744885 71.71104903 -70.90756293 64.23174129 -70.85955369 56.75244129 C-70.83438775 52.79501808 -70.81257767 48.83764262 -70.79899979 44.88016129 C-70.78608896 41.14879789 -70.76393917 37.41759909 -70.73496056 33.68632698 C-70.72168822 31.67725436 -70.71798081 29.66812553 -70.71464539 27.65901184 C-70.61469556 16.76312782 -70.10639773 5.58392651 -62.421875 -2.828125 C-44.71264018 -19.56198028 -18.16837787 -12.55538308 0 0 Z " fill="#2DD8F2" transform="translate(406.40234375,95.66015625)"/>
<path d="M0 0 C0.33 0 0.66 0 1 0 C1 1.98 1 3.96 1 6 C2.32 6.33 3.64 6.66 5 7 C4.34 8.32 3.68 9.64 3 11 C2.67 10.34 2.34 9.68 2 9 C0.68 9.33 -0.64 9.66 -2 10 C-3.01111093 13.04913228 -3.01111093 13.04913228 -2 16 C-2.66 16.66 -3.32 17.32 -4 18 C-4 18.66 -4 19.32 -4 20 C-3.34 20.33 -2.68 20.66 -2 21 C-2.99 21.33 -3.98 21.66 -5 22 C-5 23.32 -5 24.64 -5 26 C-5.66 26 -6.32 26 -7 26 C-10.88161673 36.09220351 -10.14907496 46.95095766 -10.14526367 57.58862305 C-10.14825987 59.2617958 -10.15166345 60.93496787 -10.15544128 62.60813904 C-10.16423959 67.1331989 -10.16661766 71.65823982 -10.16725707 76.18330741 C-10.16797005 79.01689393 -10.17010908 81.85047571 -10.17275429 84.68406105 C-10.1819946 94.58812386 -10.18609091 104.49217325 -10.18530273 114.39624023 C-10.18470261 123.59780911 -10.195245 132.79931924 -10.2110464 142.00087327 C-10.22416551 149.92562689 -10.22948479 157.85036142 -10.22884732 165.7751258 C-10.22859358 170.49716086 -10.23137599 175.21914368 -10.24202538 179.94116783 C-10.25178 184.38750596 -10.25173562 188.8337427 -10.24450874 193.28008461 C-10.24347192 194.90128352 -10.24577134 196.52248899 -10.2518692 198.14367676 C-10.28270728 206.91881493 -9.89821408 215.35460288 -8.42285633 224.02464008 C-8.02061792 226.85492532 -7.94979319 229.46142014 -8.0625 232.3125 C-8.16148193 237.38532371 -6.89608422 241.33443844 -5 246 C-4.38511719 247.56427734 -4.38511719 247.56427734 -3.7578125 249.16015625 C-1.60759897 255.03825297 -1.60759897 255.03825297 2 260 C2.66 259.67 3.32 259.34 4 259 C5.49821059 262.37097383 6 264.20442119 6 268 C6.66 268 7.32 268 8 268 C8.66 267.34 9.32 266.68 10 266 C13.11696661 270.33664919 13.55966813 273.80408388 14 279 C14.928125 279.309375 15.85625 279.61875 16.8125 279.9375 C23 282 23 282 24 284 C24.61875 283.814375 25.2375 283.62875 25.875 283.4375 C28 283 28 283 30 284 C29.67 284.33 29.34 284.66 29 285 C29.66 285.33 30.32 285.66 31 286 C31 286.66 31 287.32 31 288 C31.66 288 32.32 288 33 288 C33 288.66 33 289.32 33 290 C33.515625 290.103125 34.03125 290.20625 34.5625 290.3125 C37.09738396 291.02746727 39.40395177 292.0517289 41.8125 293.10546875 C51.9365121 297.24546656 61.32468789 299.13717943 72.22070312 299.19287109 C73.11756332 299.20104858 74.01442352 299.20922607 74.9384613 299.21765137 C77.88605097 299.24232688 80.8335933 299.25896973 83.78125 299.2734375 C84.79212173 299.27876118 85.80299347 299.28408485 86.84449768 299.28956985 C92.18880452 299.31621578 97.53308861 299.33562325 102.87744141 299.35009766 C107.29268991 299.36346411 111.70747925 299.39137909 116.12255859 299.43212891 C121.46693986 299.48144261 126.81090326 299.50621571 132.15550232 299.51332474 C134.1872566 299.52003221 136.21900171 299.5352411 138.25062561 299.55921555 C141.09401096 299.59087288 143.93578121 299.59090378 146.77929688 299.58349609 C148.02947853 299.6081041 148.02947853 299.6081041 149.30491638 299.63320923 C155.45135636 299.56782873 158.21238713 297.79095273 163 294 C163.99 294 164.98 294 166 294 C166 292.68 166 291.36 166 290 C166.66 290 167.32 290 168 290 C167.95875 288.7625 167.9175 287.525 167.875 286.25 C167.79297742 283.78932251 167.79321097 282.37361161 168.99603271 280.20043945 C170.2152338 277.52826257 170.25381649 275.58477666 170.25878906 272.65234375 C170.26824554 271.05048218 170.26824554 271.05048218 170.27789307 269.41625977 C170.2738446 268.26826904 170.26979614 267.12027832 170.265625 265.9375 C170.26849518 264.16234009 170.26849518 264.16234009 170.27142334 262.35131836 C170.27278404 259.84976997 170.26909563 257.3482145 170.26074219 254.84667969 C170.25004137 251.01481281 170.26064169 247.18341478 170.2734375 243.3515625 C170.27211589 240.92187396 170.26955345 238.49218572 170.265625 236.0625 C170.27169769 234.34051392 170.27169769 234.34051392 170.27789307 232.58374023 C170.27158875 231.51583252 170.26528442 230.4479248 170.25878906 229.34765625 C170.25719788 228.40929932 170.25560669 227.47094238 170.25396729 226.50415039 C169.98510369 223.85312049 169.43326836 222.23396416 168 220 C167.34 219.67 166.68 219.34 166 219 C165.375 216.4375 165.375 216.4375 165 214 C164.01 213.67 163.02 213.34 162 213 C160.25 210.5625 160.25 210.5625 159 208 C159.33 207.34 159.66 206.68 160 206 C161.61181532 207.86885904 163.21432428 209.74453177 164.8125 211.625 C165.49022461 212.40810547 165.49022461 212.40810547 166.18164062 213.20703125 C166.62314453 213.72910156 167.06464844 214.25117188 167.51953125 214.7890625 C167.92276611 215.26037598 168.32600098 215.73168945 168.74145508 216.21728516 C172.03146027 220.87754081 173.37614652 224.75061442 173.40405273 230.44506836 C173.42307899 232.33249001 173.42307899 232.33249001 173.44248962 234.25804138 C173.4404379 235.61864386 173.43744964 236.97924519 173.43359375 238.33984375 C173.43816031 239.74939728 173.44346729 241.15894859 173.44947815 242.5684967 C173.45839041 245.51637848 173.45600801 248.46398907 173.44604492 251.41186523 C173.43455902 255.17568481 173.45476916 258.93856561 173.48396206 262.70226192 C173.50237446 265.61151501 173.50202167 268.52054522 173.49632454 271.429842 C173.49617193 272.81682209 173.50216617 274.20381788 173.51461601 275.59074211 C173.58122825 284.22740342 173.45092848 289.93285574 167.62088871 296.57004452 C162.22090466 301.33393531 154.27984924 301.44077667 147.45141602 301.40405273 C146.0883004 301.41434761 146.0883004 301.41434761 144.69764709 301.42485046 C141.71623749 301.44303286 138.73535903 301.4392899 135.75390625 301.43359375 C133.65754529 301.43816271 131.56118582 301.4434704 129.46482849 301.44947815 C125.07455357 301.4583949 120.68446063 301.45600605 116.29418945 301.44604492 C110.71674966 301.43461305 105.13994848 301.45468532 99.56259251 301.48396206 C95.23062761 301.50247941 90.89881096 301.50200002 86.56681633 301.49632454 C84.51348926 301.49617292 82.46015109 301.50208314 80.40686226 301.51461601 C53.37834428 301.65625471 31.1292304 295.62514039 10.328125 277.4453125 C9 276 9 276 9 274 C8.01 273.67 7.02 273.34 6 273 C4.41265091 270.94298583 3.00595542 268.9393831 1.625 266.75 C1.22579346 266.11739258 0.82658691 265.48478516 0.4152832 264.83300781 C-11.73136713 245.02089969 -13.1469544 222.21860816 -13.16113281 199.58935547 C-13.16577032 197.85179033 -13.17079621 196.1142262 -13.17617798 194.37666321 C-13.18921341 189.68417439 -13.19572939 184.99169983 -13.20018864 180.29919577 C-13.2031335 177.35870394 -13.20724085 174.41821589 -13.21169281 171.47772598 C-13.22534386 162.25184902 -13.23502242 153.02598084 -13.2388947 143.80009449 C-13.24337094 133.19770367 -13.26090884 122.59544207 -13.2898953 111.99309051 C-13.31159958 103.76506763 -13.32160361 95.53708087 -13.32293582 87.3090297 C-13.32397752 82.40972345 -13.32974871 77.51053905 -13.34775543 72.61126328 C-13.36438851 67.99659879 -13.36631878 63.38214579 -13.35761642 58.76746178 C-13.35685415 57.08785238 -13.36107973 55.40823088 -13.37107468 53.72865105 C-13.4493996 39.72933601 -12.80666402 25.02856815 -6.5 12.25 C-6.20480469 11.60546875 -5.90960938 10.9609375 -5.60546875 10.296875 C-3.94767146 6.73297598 -2.15788653 3.2870132 0 0 Z " fill="#2D74EB" transform="translate(74,118)"/>
<path d="M0 0 C2.3105591 3.46583865 2.90503749 6.59856085 3.60073853 10.61810303 C3.73163238 11.37401663 3.86252624 12.12993022 3.99738657 12.9087503 C5.29744565 20.98742513 5.42314832 28.94621077 5.38818359 37.11035156 C5.39226326 38.74379321 5.39761285 40.37723209 5.40411377 42.01066589 C5.41763202 46.39323149 5.41255261 50.77558197 5.40297651 55.15815067 C5.39529335 59.78339714 5.4024497 64.40862719 5.40713501 69.03387451 C5.41256986 76.80044807 5.40546327 84.56693564 5.39111328 92.33349609 C5.37481427 101.25680019 5.38006452 110.17989828 5.3965925 119.10319734 C5.41030024 126.81847185 5.41208141 134.5336851 5.40427649 142.24896789 C5.39964758 146.83306857 5.39884025 151.41707315 5.40888596 156.0011673 C5.54035348 225.48683425 5.54035348 225.48683425 -17.3046875 248.44140625 C-28.23069736 258.81319822 -40.15027296 264.36692293 -55.3125 264.3125 C-56.19873047 264.32861328 -57.08496094 264.34472656 -57.99804688 264.36132812 C-66.56923096 264.3675799 -74.39274958 262.77019176 -81.375 257.5625 C-82.16648437 256.98628906 -82.95796875 256.41007812 -83.7734375 255.81640625 C-86.01453941 253.9881389 -88.06528221 252.15115882 -90 250 C-90 249.34 -90 248.68 -90 248 C-86.56247993 249.5277867 -83.81046312 251.50181056 -81 254 C-81 254.66 -81 255.32 -81 256 C-80.195625 256.268125 -79.39125 256.53625 -78.5625 256.8125 C-76.63045596 257.45651468 -74.69931368 258.10339389 -72.7734375 258.765625 C-72.00257813 259.02859375 -71.23171875 259.2915625 -70.4375 259.5625 C-69.35275391 259.93568359 -69.35275391 259.93568359 -68.24609375 260.31640625 C-56.1157251 264.00825758 -44.33361332 262.25786185 -33 257 C-30.19140633 255.02743814 -27.56279889 253.12559778 -26 250 C-25.34 250 -24.68 250 -24 250 C-24 249.34 -24 248.68 -24 248 C-23.236875 247.814375 -22.47375 247.62875 -21.6875 247.4375 C-17.92415259 245.42454673 -17.46298657 242.90129753 -16 239 C-15.34 238.34 -14.68 237.68 -14 237 C-13.01 237 -12.02 237 -11 237 C-11.020625 236.236875 -11.04125 235.47375 -11.0625 234.6875 C-11 232 -11 232 -10 229 C-9.65772583 227.66893378 -9.32248257 226.33599921 -9 225 C-8.01 225.33 -7.02 225.66 -6 226 C-6 224.68 -6 223.36 -6 222 C-5.34 222 -4.68 222 -4 222 C-1.79050168 217.58970217 -1.7629352 213.51059676 -1.875 208.6875 C-1.88402344 207.94693359 -1.89304687 207.20636719 -1.90234375 206.44335938 C-1.92575787 204.62876533 -1.96162385 202.81433929 -2 201 C-1.34 200.67 -0.68 200.34 0 200 C1.06349529 194.4241759 1.06349529 194.4241759 0 189 C0.22007426 187.15823467 0.44698156 185.31704461 0.70712662 183.48051071 C1.3157675 178.32558605 1.38639878 173.12838447 1.55419922 167.94384766 C1.59630964 166.67223093 1.63842007 165.4006142 1.68180656 164.09046364 C2.10054414 150.38458054 2.14756365 136.68074047 2.1343255 122.96911192 C2.13172466 119.40963395 2.13415931 115.85015805 2.13571167 112.29067993 C2.13750727 106.34287031 2.1351925 100.39507331 2.13037109 94.44726562 C2.12488805 87.60486082 2.12673068 80.76248564 2.1321975 73.9200815 C2.13675005 67.97966872 2.13737006 62.0392648 2.13475883 56.09885085 C2.13321358 52.57833026 2.13295443 49.05782358 2.13629532 45.53730392 C2.1397486 41.62951263 2.13494938 37.72175418 2.12939453 33.81396484 C2.13243088 32.10420723 2.13243088 32.10420723 2.13552856 30.35990906 C2.63382952 18.88067838 2.63382952 18.88067838 0 8 C-0.13415472 5.3276379 -0.04318541 2.67749512 0 0 Z " fill="#48DFEF" transform="translate(434,136)"/>
<path d="M0 0 C4.01099644 1.81126555 5.72942764 3.97005655 8.3125 7.5625 C9.11523047 8.66453986 9.9186204 9.76609966 10.72265625 10.8671875 C11.47417969 11.90101563 12.22570312 12.93484375 13 14 C14.07525169 15.40206833 15.15788547 16.7985264 16.25 18.1875 C21.89949578 25.40704568 27.43748309 32.71339145 33 40 C31.515 40.495 31.515 40.495 30 41 C29.649375 40.505 29.29875 40.01 28.9375 39.5 C26.05625711 37.26936034 23.52990974 37.80019379 20 38 C20 37.01 20 36.02 20 35 C20.99 34.34 21.98 33.68 23 33 C22.01 32.505 22.01 32.505 21 32 C21 31.01 21 30.02 21 29 C20.34 29 19.68 29 19 29 C18.505 27.515 18.505 27.515 18 26 C16.20300306 23.89366506 16.20300306 23.89366506 14 23.375 C10.69294154 21.10139731 10.74184682 17.83287524 10 14 C9.01 14 8.02 14 7 14 C7 13.34 7 12.68 7 12 C6.34 12 5.68 12 5 12 C4.67 12.66 4.34 13.32 4 14 C3.34 13.67 2.68 13.34 2 13 C2.16011063 13.69976456 2.32022125 14.39952911 2.48518372 15.12049866 C3.02681677 18.14999314 3.17411197 20.99570899 3.23706055 24.07202148 C3.27666145 25.87430458 3.27666145 25.87430458 3.31706238 27.71299744 C3.34004898 29.00266922 3.36303558 30.292341 3.38671875 31.62109375 C3.4124059 32.96721068 3.4381897 34.31332577 3.46406555 35.65943909 C3.51690724 38.47611686 3.56584477 41.29283329 3.61254883 44.10961914 C3.67292282 47.70868163 3.74718286 51.30731188 3.82492352 54.90603542 C3.88268296 57.6846889 3.93090071 60.46344973 3.976511 63.24232674 C4.01110262 65.21102805 4.05535254 67.17955206 4.09977722 69.14805603 C4.11672134 70.35273026 4.13366547 71.55740448 4.15112305 72.79858398 C4.17990791 74.38146461 4.17990791 74.38146461 4.20927429 75.99632263 C3.98076622 79.27605914 3.16177893 81.93601544 2 85 C-2.89295147 85.07433779 -7.78557183 85.12869027 -12.67895508 85.16479492 C-14.34242481 85.17985114 -16.00585505 85.20030063 -17.66918945 85.22631836 C-20.06471522 85.26284207 -22.45971467 85.27975782 -24.85546875 85.29296875 C-25.5952446 85.30845261 -26.33502045 85.32393646 -27.09721375 85.33988953 C-31.59564623 85.34134496 -34.37693557 84.69630632 -38 82 C-37.67 81.01 -37.34 80.02 -37 79 C-36.236875 79.474375 -35.47375 79.94875 -34.6875 80.4375 C-28.96625705 83.76380404 -23.44179725 83.18374604 -17 83.1875 C-15.89398438 83.19974609 -14.78796875 83.21199219 -13.6484375 83.22460938 C-12.05902344 83.22750977 -12.05902344 83.22750977 -10.4375 83.23046875 C-9.46683594 83.23457764 -8.49617188 83.23868652 -7.49609375 83.24291992 C-4.74968174 83.17364711 -4.74968174 83.17364711 -2 81 C-0.81553116 77.44659348 -0.82431247 74.19917553 -0.79467773 70.49926758 C-0.78477814 69.73805099 -0.77487854 68.97683441 -0.76467896 68.19255066 C-0.73309271 65.67657582 -0.70831791 63.16058211 -0.68359375 60.64453125 C-0.66302174 58.90003468 -0.6420252 57.15554307 -0.62062073 55.41105652 C-0.56542558 50.81946833 -0.51600501 46.22783535 -0.46777344 41.63616943 C-0.41753976 36.95076511 -0.36186343 32.26542583 -0.30664062 27.58007812 C-0.19909032 18.38677432 -0.09763838 9.19341404 0 0 Z " fill="#2372F2" transform="translate(181,258)"/>
<path d="M0 0 C0.33 0 0.66 0 1 0 C1 1.98 1 3.96 1 6 C2.32 6.33 3.64 6.66 5 7 C4.34 8.32 3.68 9.64 3 11 C2.67 10.34 2.34 9.68 2 9 C0.68 9.33 -0.64 9.66 -2 10 C-3.01111093 13.04913228 -3.01111093 13.04913228 -2 16 C-2.66 16.66 -3.32 17.32 -4 18 C-4 18.66 -4 19.32 -4 20 C-3.34 20.33 -2.68 20.66 -2 21 C-2.99 21.33 -3.98 21.66 -5 22 C-5 23.32 -5 24.64 -5 26 C-5.66 26 -6.32 26 -7 26 C-10.00896197 33.82330112 -10.14455718 41.96716433 -10.29663086 50.25756836 C-10.31589945 51.14992502 -10.33516804 52.04228168 -10.35502052 52.96167946 C-10.41735349 55.94182495 -10.47278848 58.92204628 -10.52734375 61.90234375 C-10.55797063 63.47809331 -10.55797063 63.47809331 -10.58921623 65.08567619 C-11.13636635 93.41857118 -11.32207843 121.75581708 -11.51740968 150.09284151 C-11.56802089 157.41660542 -11.62245541 164.74033974 -11.67708123 172.06407464 C-11.78872371 187.0426887 -11.8959741 202.02133094 -12 217 C-12.33 217 -12.66 217 -13 217 C-13.07027462 193.95492303 -13.12307823 170.90986389 -13.15543652 147.86470127 C-13.17086453 137.1629381 -13.19187576 126.46124175 -13.22631836 115.75952148 C-13.25634579 106.4251483 -13.2756045 97.09082354 -13.28226548 87.75640339 C-13.28615526 82.82003494 -13.29521073 77.88380495 -13.31719017 72.94748116 C-13.33776682 68.28783292 -13.34379168 63.62837833 -13.33932304 58.96868896 C-13.34013888 57.27134583 -13.34597704 55.57399525 -13.35761642 53.87669182 C-13.4491441 39.82362306 -12.83264812 25.08121715 -6.5 12.25 C-6.20480469 11.60546875 -5.90960938 10.9609375 -5.60546875 10.296875 C-3.94767146 6.73297598 -2.15788653 3.2870132 0 0 Z " fill="#3F78D9" transform="translate(74,118)"/>
<path d="M0 0 C0.33 0 0.66 0 1 0 C2.07566438 34.49076462 2.07566438 34.49076462 -4 50 C-4.36955811 50.96244629 -4.36955811 50.96244629 -4.74658203 51.94433594 C-10.93438287 67.39987458 -22.69456796 78.57632344 -37.41015625 85.921875 C-44.14358561 88.72493157 -50.11664348 89.33832863 -57.3125 89.3125 C-58.19873047 89.32861328 -59.08496094 89.34472656 -59.99804688 89.36132812 C-68.56923096 89.3675799 -76.39274958 87.77019176 -83.375 82.5625 C-84.16648437 81.98628906 -84.95796875 81.41007812 -85.7734375 80.81640625 C-88.01453941 78.9881389 -90.06528221 77.15115882 -92 75 C-92 74.34 -92 73.68 -92 73 C-88.56247993 74.5277867 -85.81046312 76.50181056 -83 79 C-83 79.66 -83 80.32 -83 81 C-82.195625 81.268125 -81.39125 81.53625 -80.5625 81.8125 C-78.63045596 82.45651468 -76.69931368 83.10339389 -74.7734375 83.765625 C-74.00257813 84.02859375 -73.23171875 84.2915625 -72.4375 84.5625 C-71.71433594 84.81128906 -70.99117188 85.06007813 -70.24609375 85.31640625 C-58.1157251 89.00825758 -46.33361332 87.25786185 -35 82 C-32.19140633 80.02743814 -29.56279889 78.12559778 -28 75 C-27.34 75 -26.68 75 -26 75 C-26 74.34 -26 73.68 -26 73 C-25.236875 72.814375 -24.47375 72.62875 -23.6875 72.4375 C-19.92415259 70.42454673 -19.46298657 67.90129753 -18 64 C-17.01 63.01 -17.01 63.01 -16 62 C-15.01 62 -14.02 62 -13 62 C-13.020625 61.236875 -13.04125 60.47375 -13.0625 59.6875 C-13 57 -13 57 -12 54 C-11.65772583 52.66893378 -11.32248257 51.33599921 -11 50 C-9.515 50.495 -9.515 50.495 -8 51 C-8 49.68 -8 48.36 -8 47 C-7.34 47 -6.68 47 -6 47 C-3.79050168 42.58970217 -3.7629352 38.51059676 -3.875 33.6875 C-3.88402344 32.94693359 -3.89304687 32.20636719 -3.90234375 31.44335938 C-3.92575787 29.62876533 -3.96162385 27.81433929 -4 26 C-3.01 25.505 -3.01 25.505 -2 25 C-0.93650471 19.4241759 -0.93650471 19.4241759 -2 14 C-1.77403598 11.99860442 -1.54388246 9.9970339 -1.25390625 8.00390625 C-0.93845906 5.85095458 -0.93845906 5.85095458 -1 3.0625 C-1 1 -1 1 0 0 Z " fill="#22C4F4" transform="translate(436,311)"/>
<path d="M0 0 C0.56203125 0.32742187 1.1240625 0.65484375 1.703125 0.9921875 C4.26859964 2.11785494 5.96842277 2.2068111 8.75 2.125 C9.94882813 2.09792969 9.94882813 2.09792969 11.171875 2.0703125 C12.07679688 2.03550781 12.07679688 2.03550781 13 2 C13.33 2.66 13.66 3.32 14 4 C15.9001177 5.24174796 15.9001177 5.24174796 18 6 C18.66 5.67 19.32 5.34 20 5 C20 5.99 20 6.98 20 8 C20.969375 8.2475 21.93875 8.495 22.9375 8.75 C23.948125 9.1625 24.95875 9.575 26 10 C26.6875 12.0625 26.6875 12.0625 27 14 C27.99 14.33 28.98 14.66 30 15 C32 18 32 18 31.625 20.1875 C31.41875 20.785625 31.2125 21.38375 31 22 C30.16597656 21.09636719 29.33195312 20.19273437 28.47265625 19.26171875 C20.26369133 9.98877942 20.26369133 9.98877942 9 6 C2.97498324 5.8290062 -1.36920593 6.92049094 -6 11 C-9.31524359 16.48729973 -10.12188692 20.95743507 -10.15821838 27.28948975 C-10.1680072 28.58235397 -10.17779602 29.8752182 -10.18788147 31.20726013 C-10.1937853 32.63784753 -10.19959577 34.06843532 -10.20532227 35.49902344 C-10.2149035 37.00698616 -10.22491373 38.5149462 -10.23532104 40.02290344 C-10.26234957 44.11549416 -10.28337025 48.20809638 -10.30332303 52.30072689 C-10.32519523 56.5782118 -10.35257789 60.85566132 -10.37937927 65.13311768 C-10.42928945 73.23259682 -10.4742345 81.33209562 -10.51740164 89.43161321 C-10.56678831 98.65283561 -10.62170114 107.8740225 -10.67708123 117.09521055 C-10.79087557 136.06344073 -10.89772017 155.03170442 -11 174 C-11.33 174 -11.66 174 -12 174 C-12.13065745 153.78102256 -12.26105737 133.56204347 -12.39115143 113.3430624 C-12.45156348 103.95486307 -12.51205953 94.5666643 -12.57275391 85.1784668 C-12.62566018 76.9948991 -12.67840825 68.8113304 -12.73096704 60.62776047 C-12.75879705 56.29539768 -12.78670581 51.96303542 -12.81480408 47.63067436 C-12.84126374 43.55057713 -12.86751142 39.47047858 -12.89359856 35.39037895 C-12.90319501 33.89525299 -12.91286802 32.40012752 -12.92262459 30.90500259 C-12.93597051 28.85805131 -12.94903668 26.81109841 -12.96203613 24.7641449 C-12.96941048 23.6201998 -12.97678482 22.47625471 -12.98438263 21.29764462 C-12.98953636 20.20942189 -12.99469009 19.12119917 -13 18 C-13.02527519 16.74287232 -13.05055038 15.48574465 -13.07659149 14.19052219 C-13 11 -13 11 -11.8125 9.1875 C-10 8 -10 8 -7.375 7.0625 C-4.80875315 6.2501999 -4.80875315 6.2501999 -4.1875 3.875 C-4.125625 3.25625 -4.06375 2.6375 -4 2 C-3.67 2.66 -3.34 3.32 -3 4 C-0.94729537 2.15811388 -0.94729537 2.15811388 0 0 Z " fill="#236AD4" transform="translate(149,152)"/>
<path d="M0 0 C6.37283348 9.55925021 5.1470072 22.23487887 5.11352539 33.27416992 C5.11367142 34.55349396 5.11381744 35.83281799 5.1139679 37.15090942 C5.11425219 40.62330222 5.1084155 44.09565975 5.10139394 47.56804442 C5.09509861 51.21018143 5.09455175 54.85231945 5.09336853 58.49446106 C5.0902733 65.37542488 5.08208453 72.25637262 5.07201904 79.1373294 C5.06080143 86.97782002 5.05533328 94.81831145 5.05032361 102.65880811 C5.03990022 118.77254812 5.02233615 134.886272 5 151 C4.34 150.67 3.68 150.34 3 150 C3 107.76 3 65.52 3 22 C2.01 21.67 1.02 21.34 0 21 C0 19.35 0 17.7 0 16 C0.66 16 1.32 16 2 16 C1.50886719 15.20335937 1.50886719 15.20335937 1.0078125 14.390625 C-0.2642989 11.37305843 -0.1959363 9.01306977 -0.125 5.75 C-0.10695313 4.67234375 -0.08890625 3.5946875 -0.0703125 2.484375 C-0.04710937 1.66453125 -0.02390625 0.8446875 0 0 Z " fill="#0BD8F4" transform="translate(432,137)"/>
<path d="M0 0 C0.99 0 1.98 0 3 0 C4.60546875 1.8984375 4.60546875 1.8984375 6.1875 4.375 C6.98220703 5.59316406 6.98220703 5.59316406 7.79296875 6.8359375 C9 9 9 9 9 11 C9.99 11.33 10.98 11.66 12 12 C12.639375 12.99 13.27875 13.98 13.9375 15 C15.66243964 18.11164048 15.66243964 18.11164048 18.25 18.875 C18.8275 18.91625 19.405 18.9575 20 19 C20.33 20.32 20.66 21.64 21 23 C21.99 23 22.98 23 24 23 C24.061875 23.61875 24.12375 24.2375 24.1875 24.875 C24.81740446 27.27117929 24.81740446 27.27117929 27.5 28.125 C28.7375 28.558125 28.7375 28.558125 30 29 C31.15392455 31.3078491 31.53437166 33.47230331 32 36 C32.66 35.67 33.32 35.34 34 35 C34.66 35.66 35.32 36.32 36 37 C36.66 37 37.32 37 38 37 C38.99 37.495 38.99 37.495 40 38 C39.67 38.99 39.34 39.98 39 41 C38.34 41 37.68 41 37 41 C37.99 44.3 38.98 47.6 40 51 C36.08850764 47.23812757 32.67180418 43.25776115 29.3125 39 C28.78994629 38.34209473 28.26739258 37.68418945 27.72900391 37.00634766 C23.17605223 31.2588165 18.69777099 25.45597922 14.24853516 19.62792969 C12.92706822 17.90490631 11.59552694 16.19004731 10.26171875 14.4765625 C9.81006348 13.89471191 9.3584082 13.31286133 8.89306641 12.71337891 C7.63975949 11.09948754 6.38439987 9.48719085 5.12890625 7.875 C3.23813905 5.32159696 1.57550037 2.75585916 0 0 Z " fill="#1CC0F3" transform="translate(304,333)"/>
<path d="M0 0 C1.32 0 2.64 0 4 0 C4 0.66 4 1.32 4 2 C4.99 2 5.98 2 7 2 C7 2.66 7 3.32 7 4 C8.3303125 3.9071875 8.3303125 3.9071875 9.6875 3.8125 C13.49369812 4.02794518 14.77251081 5.06350649 18 7 C20.45582977 7.9420367 22.8785355 8.81289709 25.375 9.625 C26.00921875 9.8415625 26.6434375 10.058125 27.296875 10.28125 C34.60884667 12.69867737 41.63293025 13.14939118 49.25244141 13.14526367 C50.15251419 13.14862228 51.05258698 13.1519809 51.97993469 13.15544128 C54.93715822 13.16489386 57.89432484 13.16689112 60.8515625 13.16796875 C62.91466291 13.17118387 64.9777631 13.17454814 67.04086304 13.17805481 C71.35634897 13.18403079 75.67181491 13.18589614 79.98730469 13.18530273 C85.51657096 13.18520087 91.04570951 13.19888453 96.57494545 13.21607494 C100.8317219 13.22718884 105.08846733 13.22922218 109.34525681 13.22869301 C111.38420428 13.22987283 113.42315256 13.23429473 115.46208572 13.24202538 C118.31026468 13.25181847 121.15816424 13.24895051 124.00634766 13.24291992 C124.84699265 13.24853943 125.68763763 13.25415894 126.55375671 13.25994873 C130.8997364 13.23655622 133.98332696 12.8079875 138 11 C139.32 11 140.64 11 142 11 C142 10.34 142 9.68 142 9 C143.32 8.67 144.64 8.34 146 8 C144.28064093 11.3240942 142.38040285 12.43785719 138.96788025 13.61146545 C134.06510076 15.15505 129.56216288 15.43153879 124.45141602 15.40405273 C123.54267227 15.41091599 122.63392853 15.41777924 121.69764709 15.42485046 C118.71623749 15.44303286 115.73535903 15.4392899 112.75390625 15.43359375 C110.65754529 15.43816271 108.56118582 15.4434704 106.46482849 15.44947815 C102.07455357 15.4583949 97.68446063 15.45600605 93.29418945 15.44604492 C87.71674966 15.43461305 82.13994848 15.45468532 76.56259251 15.48396206 C72.23062761 15.50247941 67.89881096 15.50200002 63.56681633 15.49632454 C61.51348926 15.49617292 59.46015109 15.50208314 57.40686226 15.51461601 C37.06479364 15.62121543 16.99800733 13.214137 0 1 C0 0.67 0 0.34 0 0 Z " fill="#497DCE" transform="translate(97,404)"/>
<path d="M0 0 C3.47523416 2.72831816 4.58177193 6.55961108 6.0625 10.5625 C7.83462364 15.68754452 7.83462364 15.68754452 11 20 C11.66 19.67 12.32 19.34 13 19 C14.49821059 22.37097383 15 24.20442119 15 28 C15.66 28 16.32 28 17 28 C17.66 27.34 18.32 26.68 19 26 C22.11696661 30.33664919 22.55966813 33.80408388 23 39 C23.928125 39.309375 24.85625 39.61875 25.8125 39.9375 C32 42 32 42 33 44 C33.61875 43.814375 34.2375 43.62875 34.875 43.4375 C37 43 37 43 39 44 C38.67 44.33 38.34 44.66 38 45 C38.99 45.495 38.99 45.495 40 46 C40 46.66 40 47.32 40 48 C40.66 48 41.32 48 42 48 C42 48.66 42 49.32 42 50 C41.01 50 40.02 50 39 50 C39 49.34 39 48.68 39 48 C38.01 48 37.02 48 36 48 C36 47.34 36 46.68 36 46 C35.12988281 46.08894531 34.25976562 46.17789063 33.36328125 46.26953125 C29.05444722 45.92422399 27.43922769 44.47660159 24.1875 41.6875 C23.23230469 40.88699219 22.27710937 40.08648437 21.29296875 39.26171875 C19 37 19 37 18 34 C16.515 33.505 16.515 33.505 15 33 C13.41281284 30.94319566 12.00676521 28.93856772 10.625 26.75 C10.22796875 26.12609375 9.8309375 25.5021875 9.421875 24.859375 C4.65286652 17.12921746 1.28880905 9.02166338 0 0 Z " fill="#2E79EE" transform="translate(65,358)"/>
<path d="M0 0 C3.32635882 1.52572656 4.95563002 2.93344504 7 6 C6.67 6.66 6.34 7.32 6 8 C5.01 7.34 4.02 6.68 3 6 C3 5.34 3 4.68 3 4 C2.34 4 1.68 4 1 4 C1.03029297 5.17054932 1.06058594 6.34109863 1.09179688 7.54711914 C2.09932217 46.9255595 2.09932217 46.9255595 2.17724609 63.96603394 C2.18730499 65.90000709 2.20684016 67.83392352 2.2265625 69.76782227 C2.22849609 71.5050354 2.22849609 71.5050354 2.23046875 73.27734375 C2.23457764 74.26984131 2.23868652 75.26233887 2.24291992 76.28491211 C1.97974563 79.22638078 1.32612929 81.36727333 0 84 C-4.37428781 86.18714391 -10.25960135 85.22710621 -15.12084961 85.24023438 C-17.29384983 85.2499169 -19.46589463 85.28092826 -21.63867188 85.3125 C-23.02603606 85.31903269 -24.413407 85.32428212 -25.80078125 85.328125 C-27.06059814 85.3374707 -28.32041504 85.34681641 -29.6184082 85.35644531 C-33.21273388 84.97757624 -35.09827129 84.0941379 -38 82 C-37.67 81.01 -37.34 80.02 -37 79 C-36.236875 79.474375 -35.47375 79.94875 -34.6875 80.4375 C-28.96625705 83.76380404 -23.44179725 83.18374604 -17 83.1875 C-15.89398438 83.19974609 -14.78796875 83.21199219 -13.6484375 83.22460938 C-12.05902344 83.22750977 -12.05902344 83.22750977 -10.4375 83.23046875 C-9.46683594 83.23457764 -8.49617188 83.23868652 -7.49609375 83.24291992 C-4.74968174 83.17364711 -4.74968174 83.17364711 -2 81 C-0.81553116 77.44659348 -0.82431247 74.19917553 -0.79467773 70.49926758 C-0.78477814 69.73805099 -0.77487854 68.97683441 -0.76467896 68.19255066 C-0.73309271 65.67657582 -0.70831791 63.16058211 -0.68359375 60.64453125 C-0.66302174 58.90003468 -0.6420252 57.15554307 -0.62062073 55.41105652 C-0.56542558 50.81946833 -0.51600501 46.22783535 -0.46777344 41.63616943 C-0.41753976 36.95076511 -0.36186343 32.26542583 -0.30664062 27.58007812 C-0.19909032 18.38677432 -0.09763838 9.19341404 0 0 Z " fill="#387BF2" transform="translate(181,258)"/>
<path d="M0 0 C1.81851871 3.11765371 2.24763725 5.37191337 2.23046875 8.96484375 C2.22917969 9.92382568 2.22789062 10.88280762 2.2265625 11.87084961 C2.20722656 13.38884155 2.20722656 13.38884155 2.1875 14.9375 C2.18105469 15.97205322 2.17460937 17.00660645 2.16796875 18.07250977 C2.10296791 24.55177365 1.83071738 30.95118762 1.21875 37.40234375 C1.0178252 39.7883257 0.96475148 42.10750665 1 44.5 C1 47.52904546 0.73131765 50.0747294 0 53 C-3.98637422 51.44923657 -6.02669078 48.9059317 -8.6875 45.625 C-9.47511719 44.66851562 -10.26273437 43.71203125 -11.07421875 42.7265625 C-12.81924851 40.25591185 -13.40394726 38.8636447 -14 36 C-15.9837767 34.71563266 -15.9837767 34.71563266 -18 34 C-18 33.34 -18 32.68 -18 32 C-18.66 32 -19.32 32 -20 32 C-20.69699552 30.54618103 -21.38233866 29.08677047 -22.0625 27.625 C-22.44535156 26.81289062 -22.82820313 26.00078125 -23.22265625 25.1640625 C-23.47917969 24.44992188 -23.73570312 23.73578125 -24 23 C-23.67 22.34 -23.34 21.68 -23 21 C-20.78625945 23.80828023 -18.58005407 26.62239575 -16.375 29.4375 C-15.44880859 30.6121582 -15.44880859 30.6121582 -14.50390625 31.81054688 C-10.81491544 36.52857197 -7.37680199 41.32007269 -4.15087891 46.36743164 C-3.77108887 46.9061792 -3.39129883 47.44492676 -3 48 C-2.67 48 -2.34 48 -2 48 C-1.97494385 46.83017578 -1.9498877 45.66035156 -1.92407227 44.45507812 C-1.82941271 40.08649018 -1.72933847 35.71803972 -1.62768555 31.34960938 C-1.58455691 29.46422558 -1.54286778 27.57880826 -1.50268555 25.69335938 C-1.4444442 22.97255376 -1.38090932 20.25191352 -1.31640625 17.53125 C-1.29133751 16.28075867 -1.29133751 16.28075867 -1.26576233 15.00500488 C-1.13946145 9.9376645 -0.70815191 5.02006618 0 0 Z " fill="#14CDF8" transform="translate(338,208)"/>
<path d="M0 0 C4.00872629 3.80501606 7.29650666 7.86179427 10.5625 12.3125 C11.610284 13.72945742 12.65847385 15.14611481 13.70703125 16.5625 C14.51261475 17.65304688 14.51261475 17.65304688 15.33447266 18.765625 C17.01955546 21.02623448 18.72990992 23.2653365 20.44921875 25.5 C21.27860962 26.58414185 21.27860962 26.58414185 22.12475586 27.69018555 C23.19191204 29.08372448 24.26419267 30.47335704 25.34204102 31.85864258 C29 36.66328177 29 36.66328177 29 40 C27.76302083 38.47005208 26.52604167 36.94010417 25.2890625 35.41015625 C24.0333609 33.86733563 24.0333609 33.86733563 22 33 C22 32.01 22 31.02 22 30 C20.68 29.67 19.36 29.34 18 29 C18 28.01 18 27.02 18 26 C16.700625 25.87625 15.40125 25.7525 14.0625 25.625 C11.84765625 25.4140625 11.84765625 25.4140625 10 25 C8.56911472 22.13822943 9.40008303 20.06624227 10 17 C7.36 17 4.72 17 2 17 C1.67 15.35 1.34 13.7 1 12 C1.99 12.33 2.98 12.66 4 13 C3.67 12.01 3.34 11.02 3 10 C2.34 9.67 1.68 9.34 1 9 C0.5859375 6.93359375 0.5859375 6.93359375 0.375 4.4375 C0.30023438 3.61121094 0.22546875 2.78492188 0.1484375 1.93359375 C0.09945312 1.29550781 0.05046875 0.65742188 0 0 Z " fill="#156EF9" transform="translate(255,150)"/>
<path d="M0 0 C0.33 0 0.66 0 1 0 C1.02323208 11.17067968 1.0409703 22.34135356 1.05181217 33.51205254 C1.05701729 38.69977551 1.06407165 43.88748189 1.07543945 49.07519531 C1.08635288 54.08726285 1.09229468 59.09931447 1.09487724 64.11139297 C1.09671631 66.01781591 1.1003074 67.92423803 1.10573006 69.83065414 C1.15594041 88.22445238 1.15594041 88.22445238 0 97 C-0.33 97 -0.66 97 -1 97 C-1.17581128 93.47956615 -1.33866056 89.95862434 -1.5 86.4375 C-1.54769531 85.48552734 -1.59539062 84.53355469 -1.64453125 83.55273438 C-2.53956606 63.54231335 -1.87120166 43.56067104 -1 23.5625 C-0.90320753 21.25848191 -0.80685143 18.95444545 -0.7109375 16.65039062 C-0.47896048 11.10003967 -0.24170492 5.54993542 0 0 Z " fill="#4CCFF0" transform="translate(438,238)"/>
<path d="M0 0 C5.66396271 3.69891442 9.73910456 7.77071924 14 13 C14.61617187 13.74121094 15.23234375 14.48242188 15.8671875 15.24609375 C20.32167293 20.69344642 24.45548808 26.33563156 28.49926758 32.09033203 C30.89186023 35.48974476 33.3679168 38.78233865 36 42 C35.505 42.99 35.505 42.99 35 44 C32.18060883 41.79020692 29.46941056 39.59937954 27 37 C26.01 37.495 26.01 37.495 25 38 C22.03690758 35.03690758 20.78267929 33.75402796 20.0625 29.625 C19.32355883 25.98266007 18.44438851 23.8517866 16 21 C15.71125 20.13375 15.4225 19.2675 15.125 18.375 C13.63240173 15.22395921 12.1823163 15.21231097 9 14 C5.77272762 10.68550404 5 9.73899834 5 5 C4.360625 4.731875 3.72125 4.46375 3.0625 4.1875 C1 3 1 3 0 0 Z M22 31 C23 33 23 33 23 33 Z " fill="#2978EF" transform="translate(219,106)"/>
<path d="M0 0 C3.43752007 1.5277867 6.18953688 3.50181056 9 6 C9 6.66 9 7.32 9 8 C9.804375 8.268125 10.60875 8.53625 11.4375 8.8125 C13.36954404 9.45651468 15.30068632 10.10339389 17.2265625 10.765625 C17.99742187 11.02859375 18.76828125 11.2915625 19.5625 11.5625 C20.28566406 11.81128906 21.00882812 12.06007813 21.75390625 12.31640625 C33.8842749 16.00825758 45.66638668 14.25786185 57 9 C59.12770581 7.44133535 61.02857624 5.76285284 63 4 C65.1875 2.625 65.1875 2.625 67 2 C67.99 2.33 68.98 2.66 70 3 C59.21938206 11.76301626 48.65687018 16.36264131 34.6875 16.3125 C33.80126953 16.32861328 32.91503906 16.34472656 32.00195312 16.36132812 C23.43076904 16.3675799 15.60725042 14.77019176 8.625 9.5625 C7.83351563 8.98628906 7.04203125 8.41007812 6.2265625 7.81640625 C3.98546059 5.9881389 1.93471779 4.15115882 0 2 C0 1.34 0 0.68 0 0 Z " fill="#3CCFF2" transform="translate(344,384)"/>
<path d="M0 0 C10.83135158 3.78444814 19.92493333 9.71516477 27.8671875 18.0078125 C23.4121875 17.0178125 23.4121875 17.0178125 18.8671875 16.0078125 C18.8671875 14.6878125 18.8671875 13.3678125 18.8671875 12.0078125 C18.2484375 11.8840625 17.6296875 11.7603125 16.9921875 11.6328125 C14.8671875 11.0078125 14.8671875 11.0078125 12.8671875 9.0078125 C10.79844716 8.365289 10.79844716 8.365289 8.8671875 8.0078125 C8.8671875 7.0178125 8.8671875 6.0278125 8.8671875 5.0078125 C7.7740625 4.7396875 6.6809375 4.4715625 5.5546875 4.1953125 C0.30239731 2.88459735 -4.91444934 1.4466994 -10.1328125 0.0078125 C-10.1328125 -0.6521875 -10.1328125 -1.3121875 -10.1328125 -1.9921875 C-11.57072766 -1.85050613 -13.0081362 -1.70367707 -14.4453125 -1.5546875 C-15.24582031 -1.47347656 -16.04632813 -1.39226562 -16.87109375 -1.30859375 C-19.29368429 -1.03953057 -19.29368429 -1.03953057 -22.1328125 0.0078125 C-23.1228125 -1.3121875 -24.1128125 -2.6321875 -25.1328125 -3.9921875 C-18.38802052 -7.36458349 -6.70098935 -2.12225847 0 0 Z " fill="#3B7CE0" transform="translate(191.1328125,87.9921875)"/>
<path d="M0 0 C2.94366879 4.41550318 5 7.61090125 5 13 C9.16635282 14.98397753 12.67795628 15.30069028 17.26953125 15.4140625 C17.95053391 15.43342865 18.63153656 15.4527948 19.33317566 15.4727478 C21.49282593 15.53218132 23.65253057 15.578782 25.8125 15.625 C27.28322544 15.66321328 28.75392929 15.70226694 30.22460938 15.7421875 C33.81620789 15.83785183 37.40796913 15.92201575 41 16 C40.67 16.66 40.34 17.32 40 18 C38.90300781 17.98839844 37.80601562 17.97679687 36.67578125 17.96484375 C35.22135588 17.95546036 33.76692865 17.94636075 32.3125 17.9375 C31.59126953 17.92912109 30.87003906 17.92074219 30.12695312 17.91210938 C26.26473118 17.89447366 22.76667113 18.19382398 19 19 C16.99890722 18.67329097 14.99883869 18.34022786 13 18 C10.72349255 18.3577614 10.72349255 18.3577614 9 19 C8.67 18.34 8.34 17.68 8 17 C5.37418862 15.42451317 4.12900213 15 1 15 C0.34 15.66 -0.32 16.32 -1 17 C-1.089717 13.14216906 -0.7536344 9.76817199 0 6 C0.03772913 4.0003559 0.04649906 1.99945939 0 0 Z " fill="#1F6FF8" transform="translate(138,327)"/>
<path d="M0 0 C-0.99 0.33 -1.98 0.66 -3 1 C-2.67 2.65 -2.34 4.3 -2 6 C-4.475 5.01 -4.475 5.01 -7 4 C-8.20628008 6.33214148 -9.1654738 8.49642139 -10 11 C-10.66 11 -11.32 11 -12 11 C-11.67 11.515625 -11.34 12.03125 -11 12.5625 C-9.61500277 15.93843074 -9.62491219 18.37415116 -10 22 C-11.875 25.25 -11.875 25.25 -14 28 C-14.66 28.99 -15.32 29.98 -16 31 C-16.35236204 20.3508362 -15.35921792 11.8612053 -9 3 C-6.03410953 0.15334131 -4.14507859 -1.38169286 0 0 Z " fill="#06D5F4" transform="translate(354,90)"/>
<path d="M0 0 C0 0.33 0 0.66 0 1 C-0.69859131 1.01981934 -1.39718262 1.03963867 -2.11694336 1.06005859 C-27.53154295 1.10146389 -27.53154295 1.10146389 -52 7 C-55.98352367 8.50321648 -57.95086557 9.20869684 -62 8 C-43.01700534 -1.77183691 -20.7937491 -2.52480863 0 0 Z " fill="#3F7CDA" transform="translate(167,82)"/>
<path d="M0 0 C3.76687864 1.88343932 4.79421646 2.69132469 7 6 C6.67 6.66 6.34 7.32 6 8 C5.01 7.34 4.02 6.68 3 6 C3 5.34 3 4.68 3 4 C2.34 4 1.68 4 1 4 C1 28.42 1 52.84 1 78 C0.67 78 0.34 78 0 78 C0 52.26 0 26.52 0 0 Z " fill="#4076C7" transform="translate(181,258)"/>
<path d="M0 0 C4.09266308 3.92623315 7.65900027 8.12679638 11.1875 12.5625 C11.98704102 13.5515332 11.98704102 13.5515332 12.80273438 14.56054688 C13.31513672 15.20185547 13.82753906 15.84316406 14.35546875 16.50390625 C14.81590576 17.07955322 15.27634277 17.6552002 15.75073242 18.24829102 C17.06286483 20.08814836 18.04246148 21.95637363 19 24 C18.01 24 17.02 24 16 24 C15.5875 23.505 15.175 23.01 14.75 22.5 C12.03466704 20.17257175 9.43613762 20.80550164 6 21 C6 20.01 6 19.02 6 18 C6.99 17.34 7.98 16.68 9 16 C8.34 15.67 7.68 15.34 7 15 C7 14.01 7 13.02 7 12 C6.34 12 5.68 12 5 12 C4.67 11.01 4.34 10.02 4 9 C3.34 8.34 2.68 7.68 2 7 C1.28072705 4.68234271 0.6090107 2.34904126 0 0 Z " fill="#2D77E8" transform="translate(195,275)"/>
<path d="M0 0 C4.12989477 4.26311718 4.61271765 7.28758534 5 13 C5.928125 13.309375 6.85625 13.61875 7.8125 13.9375 C14 16 14 16 15 18 C15.61875 17.814375 16.2375 17.62875 16.875 17.4375 C19 17 19 17 21 18 C20.67 18.33 20.34 18.66 20 19 C20.66 19.33 21.32 19.66 22 20 C22 20.66 22 21.32 22 22 C22.66 22 23.32 22 24 22 C24 22.66 24 23.32 24 24 C23.01 24 22.02 24 21 24 C21 23.34 21 22.68 21 22 C20.01 22 19.02 22 18 22 C18 21.34 18 20.68 18 20 C17.13117188 20.08765625 16.26234375 20.1753125 15.3671875 20.265625 C11.0664647 19.92635684 9.40046646 18.50174689 6.125 15.75 C5.15820312 14.96109375 4.19140625 14.1721875 3.1953125 13.359375 C1 11 1 11 1 7 C0.34 7 -0.32 7 -1 7 C-1.33 5.68 -1.66 4.36 -2 3 C-1.34 3 -0.68 3 0 3 C0 2.01 0 1.02 0 0 Z " fill="#2072F4" transform="translate(83,384)"/>
<path d="M0 0 C0.99 0.66 1.98 1.32 3 2 C-10.18957056 9.08328789 -22.36752417 10.96812904 -37 7 C-36.67 6.01 -36.34 5.02 -36 4 C-35.195625 4.4640625 -35.195625 4.4640625 -34.375 4.9375 C-29.09382651 7.30013025 -23.66968606 7.09775321 -18 7 C-17.67 5.35 -17.34 3.7 -17 2 C-16.34 2 -15.68 2 -15 2 C-14.67 3.32 -14.34 4.64 -14 6 C-13.34 6 -12.68 6 -12 6 C-11.76410156 5.35417969 -11.52820313 4.70835937 -11.28515625 4.04296875 C-10 2 -10 2 -7.87109375 1.42578125 C-7.06800781 1.38839844 -6.26492188 1.35101563 -5.4375 1.3125 C-2.41906099 1.37731549 -2.41906099 1.37731549 0 0 Z " fill="#05BDF6" transform="translate(401,390)"/>
<path d="M0 0 C0 0.66 0 1.32 0 2 C-4.95 1.67 -9.9 1.34 -15 1 C-15.33 1.99 -15.66 2.98 -16 4 C-16.66 4 -17.32 4 -18 4 C-18.99 4.66 -19.98 5.32 -21 6 C-21 5.34 -21 4.68 -21 4 C-22.58468677 4.45363171 -24.16769924 4.91311452 -25.75 5.375 C-26.63171875 5.63023438 -27.5134375 5.88546875 -28.421875 6.1484375 C-30.76080572 6.9209934 -32.83442562 7.83625676 -35 9 C-24.56395317 -2.03239237 -14.12032394 -1.28209076 0 0 Z " fill="#3FDFF2" transform="translate(380,84)"/>
<path d="M0 0 C4.20603402 3.97365645 7.63028971 8.28782644 11.0625 12.9375 C11.57876953 13.62779297 12.09503906 14.31808594 12.62695312 15.02929688 C21 26.28224522 21 26.28224522 21 29 C17.44242089 27.8141403 16.62880321 26.61744417 14.375 23.6875 C13.76398438 22.90761719 13.15296875 22.12773437 12.5234375 21.32421875 C11.07044788 19.10747817 10.59265602 17.53125047 10 15 C8.0162233 13.71563266 8.0162233 13.71563266 6 13 C6 12.34 6 11.68 6 11 C5.34 11 4.68 11 4 11 C3.32880451 9.5437455 2.66318193 8.08492133 2 6.625 C1.62875 5.81289062 1.2575 5.00078125 0.875 4.1640625 C0 2 0 2 0 0 Z " fill="#39B7EF" transform="translate(314,229)"/>
<path d="M0 0 C1.32 0 2.64 0 4 0 C4 0.66 4 1.32 4 2 C4.99 2 5.98 2 7 2 C7 2.66 7 3.32 7 4 C8.3303125 3.9071875 8.3303125 3.9071875 9.6875 3.8125 C13.49369812 4.02794518 14.77251081 5.06350649 18 7 C20.45582977 7.9420367 22.8785355 8.81289709 25.375 9.625 C26.00921875 9.8415625 26.6434375 10.058125 27.296875 10.28125 C30.52592931 11.34881489 33.53650207 12.07174778 36.9140625 12.5234375 C37.93242187 12.68070312 38.95078125 12.83796875 40 13 C40.495 13.99 40.495 13.99 41 15 C26.56749668 13.204795 13.56703319 9.37314375 1 2 C0.67 1.34 0.34 0.68 0 0 Z " fill="#4A89E6" transform="translate(97,404)"/>
<path d="M0 0 C3.74822927 3.59400874 6.94813409 7.35072115 10.0625 11.5 C12.99557202 15.37183473 15.9472579 19.221086 19 23 C18.67 23.66 18.34 24.32 18 25 C17.21625 24.814375 16.4325 24.62875 15.625 24.4375 C13.02910225 23.74037734 13.02910225 23.74037734 11 25 C9.875 18.375 9.875 18.375 11 15 C10.01 15 9.02 15 8 15 C8 14.34 8 13.68 8 13 C7.01 12.67 6.02 12.34 5 12 C4.9175 11.236875 4.835 10.47375 4.75 9.6875 C3.83627726 6.41332685 2.64500069 5.96241986 0 4 C0 2.68 0 1.36 0 0 Z " fill="#2977EC" transform="translate(214,299)"/>
<path d="M0 0 C0.33 0.66 0.66 1.32 1 2 C1.66 2 2.32 2 3 2 C3.33 3.32 3.66 4.64 4 6 C4.66 6 5.32 6 6 6 C6.33 6.99 6.66 7.98 7 9 C7.7425 9.7425 8.485 10.485 9.25 11.25 C12.32710822 14.32710822 14.60363668 17.37122126 17 21 C17 21.66 17 22.32 17 23 C17.66 23 18.32 23 19 23 C24 28.47619048 24 28.47619048 24 31 C24.66 31 25.32 31 26 31 C26.33 32.65 26.66 34.3 27 36 C22.12477111 31.42947292 18.12664818 26.24237158 14 21 C12.64711339 19.31147359 11.29296826 17.62395469 9.9375 15.9375 C6.24691449 11.32609514 2.61205012 6.67308984 -1 2 C-0.67 1.34 -0.34 0.68 0 0 Z " fill="#4889E1" transform="translate(217,219)"/>
<path d="M0 0 C0 0.66 0 1.32 0 2 C-1.79296875 3.40234375 -1.79296875 3.40234375 -4.1875 4.9375 C-4.96480469 5.44152344 -5.74210937 5.94554688 -6.54296875 6.46484375 C-8.16635791 7.47913936 -9.81403888 8.45565698 -11.484375 9.390625 C-18.31184977 13.75851259 -23.70794285 20.20424285 -28 27 C-28.66 27 -29.32 27 -30 27 C-27.58085289 21.43212174 -23.09049233 17.38170287 -19 13 C-18.40703125 12.34128906 -17.8140625 11.68257812 -17.203125 11.00390625 C-13.08710794 6.60368801 -6.33108919 0 0 0 Z " fill="#3C7CDF" transform="translate(105,91)"/>
<path d="M0 0 C0.33 0 0.66 0 1 0 C1.08821107 3.95818926 1.14079412 7.91612062 1.1875 11.875 C1.21263672 12.98359375 1.23777344 14.0921875 1.26367188 15.234375 C1.32649453 22.35427541 0.51242511 28.32474802 -2 35 C-3.74565111 31.78360346 -4.204437 29.67986596 -4 26 C-3.34 25.67 -2.68 25.34 -2 25 C-0.93650471 19.4241759 -0.93650471 19.4241759 -2 14 C-1.77403598 11.99860442 -1.54388246 9.9970339 -1.25390625 8.00390625 C-0.93845906 5.85095458 -0.93845906 5.85095458 -1 3.0625 C-1 1 -1 1 0 0 Z " fill="#12CDFA" transform="translate(436,311)"/>
<path d="M0 0 C1.94807556 3.604841 2.340887 6.38837164 2.5625 10.5 C2.75369526 14.78606984 2.75369526 14.78606984 3.5234375 18.984375 C4.21690668 21.91740856 4.0925694 24.74305986 4.0625 27.75 C4.05347656 28.92046875 4.04445313 30.0909375 4.03515625 31.296875 C4.02355469 32.18890625 4.01195313 33.0809375 4 34 C-0.34280937 29.65719063 -0.11861242 22.06964389 -0.1953125 16.2109375 C-0.18225606 14.26552763 -0.15876113 12.32016072 -0.125 10.375 C-0.11597656 9.37082031 -0.10695312 8.36664063 -0.09765625 7.33203125 C-0.07437746 4.88775874 -0.04168487 2.44401592 0 0 Z " fill="#3177E8" transform="translate(62,324)"/>
<path d="M0 0 C8.82579638 5.76378539 14.6687316 13.68660198 21 22 C20.01 22.33 19.02 22.66 18 23 C16 21 16 21 15.1875 18.5 C13.63922029 15.24046377 12.28717615 15.25225758 9 14 C5.77272762 10.68550404 5 9.73899834 5 5 C4.360625 4.731875 3.72125 4.46375 3.0625 4.1875 C1 3 1 3 0 0 Z " fill="#3C7DE3" transform="translate(219,106)"/>
<path d="M0 0 C2.97 0.99 5.94 1.98 9 3 C9.33 5.97 9.66 8.94 10 12 C10.66 12 11.32 12 12 12 C12.33 13.32 12.66 14.64 13 16 C13.66 16 14.32 16 15 16 C15.33 17.65 15.66 19.3 16 21 C12.21193403 17.36182153 8.93261518 13.54860913 5.75 9.375 C5.30398437 8.80265625 4.85796875 8.2303125 4.3984375 7.640625 C2.45190571 5.10423509 1.01872822 3.05618467 0 0 Z " fill="#1B6BFA" transform="translate(181,174)"/>
<path d="M0 0 C1.9375 0.8125 1.9375 0.8125 4 2 C4.33 2.99 4.66 3.98 5 5 C5.66 5 6.32 5 7 5 C8.03645932 6.64424142 9.02938913 8.3160486 10 10 C11.28464036 11.68823374 12.59819869 13.35479301 13.9375 15 C14.60652344 15.825 15.27554687 16.65 15.96484375 17.5 C17.37968374 19.23799922 18.83358038 20.94463072 20.31640625 22.625 C20.87199219 23.40875 21.42757813 24.1925 22 25 C21.67 25.99 21.34 26.98 21 28 C0 1.98984772 0 1.98984772 0 0 Z " fill="#3BA6EA" transform="translate(266,284)"/>
<path d="M0 0 C0.703125 1.58203125 0.703125 1.58203125 1 4 C0.00589114 6.34785123 -1.02515942 8.46760718 -2.25 10.6875 C-5.07417215 16.0290052 -7.2043576 21.23504281 -9 27 C-9.66 27.99 -10.32 28.98 -11 30 C-10.80883916 19.294993 -5.65075596 8.94414133 0 0 Z " fill="#417CDC" transform="translate(74,118)"/>
<path d="M0 0 C0.33 0 0.66 0 1 0 C1.05449838 1.72880982 1.09301688 3.45812712 1.125 5.1875 C1.14820313 6.15042969 1.17140625 7.11335938 1.1953125 8.10546875 C0.98886847 11.16496921 0.39897065 13.27977929 -1 16 C-3.125 16.8125 -3.125 16.8125 -5 17 C-5 17.66 -5 18.32 -5 19 C-7.64 19.66 -10.28 20.32 -13 21 C-10.16569547 17.7457985 -8.31392226 16.4793247 -4 16 C-4 14.68 -4 13.36 -4 12 C-3.34 12 -2.68 12 -2 12 C-2.04125 10.7625 -2.0825 9.525 -2.125 8.25 C-2.13658291 4.98362038 -1.8568702 2.7853053 0 0 Z " fill="#136BF6" transform="translate(244,396)"/>
<path d="M0 0 C4.57113669 2.28556834 6.27601016 3.41529687 8.7890625 8.03515625 C10.06248457 10.10138625 11.49017651 11.77216891 13.125 13.5625 C15.76102613 16.50473119 17.0515602 19.11139682 18 23 C14.25178927 19.39956819 11.01402747 15.6373726 7.875 11.5 C7.44574219 10.94441406 7.01648438 10.38882813 6.57421875 9.81640625 C4.15744728 6.65601278 1.97245224 3.45501437 0 0 Z " fill="#3E81E3" transform="translate(197,195)"/>
<path d="M0 0 C4.26629384 4.03675299 7.7934872 8.43013238 11.3125 13.125 C12.13717773 14.19814453 12.13717773 14.19814453 12.97851562 15.29296875 C13.49736328 15.98261719 14.01621094 16.67226562 14.55078125 17.3828125 C15.02169189 18.00559082 15.49260254 18.62836914 15.9777832 19.27001953 C17 21 17 21 17 24 C15.76302083 22.47005208 14.52604167 20.94010417 13.2890625 19.41015625 C12.0333609 17.86733563 12.0333609 17.86733563 10 17 C10 16.01 10 15.02 10 14 C8.68 13.67 7.36 13.34 6 13 C5.731875 11.865625 5.46375 10.73125 5.1875 9.5625 C4.5996875 7.7990625 4.5996875 7.7990625 4 6 C3.01 5.67 2.02 5.34 1 5 C0.67 3.35 0.34 1.7 0 0 Z " fill="#3883DA" transform="translate(267,166)"/>
<path d="M0 0 C0.99 0 1.98 0 3 0 C4.60546875 1.8984375 4.60546875 1.8984375 6.1875 4.375 C6.98220703 5.59316406 6.98220703 5.59316406 7.79296875 6.8359375 C9 9 9 9 9 11 C9.99 11.33 10.98 11.66 12 12 C13.640625 13.7421875 13.640625 13.7421875 15.25 15.875 C15.79140625 16.57367188 16.3328125 17.27234375 16.890625 17.9921875 C17.25671875 18.65476562 17.6228125 19.31734375 18 20 C17.67 20.99 17.34 21.98 17 23 C0 1.46263345 0 1.46263345 0 0 Z " fill="#44C8F1" transform="translate(304,333)"/>
<path d="M0 0 C4.54109672 4.26587874 8.24735246 9.03612328 12 14 C11.67 14.66 11.34 15.32 11 16 C9 14.625 9 14.625 7 13 C7 12.34 7 11.68 7 11 C5.02 10.34 3.04 9.68 1 9 C0.67 6.03 0.34 3.06 0 0 Z " fill="#2579EC" transform="translate(255,150)"/>
<path d="M0 0 C0.49234131 0.28584961 0.98468262 0.57169922 1.49194336 0.86621094 C8.50597295 4.49648052 14.78854208 4.47371102 22.5625 4.25 C23.76197266 4.23195313 24.96144531 4.21390625 26.19726562 4.1953125 C29.13236052 4.14853808 32.06574403 4.08300583 35 4 C34.67 4.66 34.34 5.32 34 6 C29.9615943 6.0744389 25.92345707 6.12873729 21.88452148 6.16479492 C20.51205483 6.17983432 19.13963586 6.20027133 17.76733398 6.22631836 C15.78911344 6.26291221 13.81053486 6.27816698 11.83203125 6.29296875 C10.64327393 6.3086792 9.4545166 6.32438965 8.22973633 6.34057617 C4.67675808 5.96591409 2.77440561 5.23396669 0 3 C0 2.01 0 1.02 0 0 Z " fill="#3675CE" transform="translate(143,337)"/>
<path d="M0 0 C0.99 0 1.98 0 3 0 C4.7890625 1.86328125 4.7890625 1.86328125 6.625 4.3125 C7.23601562 5.11300781 7.84703125 5.91351563 8.4765625 6.73828125 C10 9 10 9 11 12 C11.66 12 12.32 12 13 12 C14.32 14.31 15.64 16.62 17 19 C16.01 19 15.02 19 14 19 C12.58959961 17.57885742 12.58959961 17.57885742 11.15234375 15.60546875 C10.62962891 14.89712891 10.10691406 14.18878906 9.56835938 13.45898438 C9.03017578 12.70939453 8.49199219 11.95980469 7.9375 11.1875 C7.39544922 10.44951172 6.85339844 9.71152344 6.29492188 8.95117188 C4.13584596 6.00212505 2.02770127 3.04155191 0 0 Z " fill="#3FBFF0" transform="translate(288,313)"/>
<path d="M0 0 C0.33 0.66 0.66 1.32 1 2 C-0.49366569 6.07064937 -3.1753014 7.91124676 -6.5390625 10.4375 C-8.45531241 12.13044864 -8.45531241 12.13044864 -8 16 C-9.32 16.33 -10.64 16.66 -12 17 C-12 15.68 -12 14.36 -12 13 C-11.34 13 -10.68 13 -10 13 C-9.74347656 12.42636719 -9.48695312 11.85273437 -9.22265625 11.26171875 C-7.88079097 8.77948234 -6.32152881 6.90892454 -4.4375 4.8125 C-3.81746094 4.11769531 -3.19742188 3.42289062 -2.55859375 2.70703125 C-1.72141231 1.79011824 -0.8779528 0.8779528 0 0 Z " fill="#1B6CF7" transform="translate(87,105)"/>
<path d="M0 0 C4.31320068 1.75722991 7.9031084 4.8062168 10 9 C9.01 9 8.02 9 7 9 C6.5875 8.505 6.175 8.01 5.75 7.5 C3.03466704 5.17257175 0.43613762 5.80550164 -3 6 C-3 5.01 -3 4.02 -3 3 C-2.01 2.34 -1.02 1.68 0 1 C0 0.67 0 0.34 0 0 Z " fill="#2372F0" transform="translate(204,290)"/>
<path d="M0 0 C4.54075781 4.14010271 7.71842138 8.82390176 11 14 C8.69 14 6.38 14 4 14 C4.268125 13.46375 4.53625 12.9275 4.8125 12.375 C5.30108916 9.66593075 5.30108916 9.66593075 2.5625 7 C1.716875 6.01 0.87125 5.02 0 4 C0 2.68 0 1.36 0 0 Z " fill="#2A87E8" transform="translate(285,190)"/>
<path d="M0 0 C4.571279 0.54855348 8.67435795 1.41744803 13 3 C11.68 4.32 10.36 5.64 9 7 C8.566875 6.505 8.13375 6.01 7.6875 5.5 C6.00259517 3.66781808 6.00259517 3.66781808 3 4 C2.01 5.485 2.01 5.485 1 7 C0.34 6.67 -0.32 6.34 -1 6 C-0.67 4.02 -0.34 2.04 0 0 Z " fill="#176AFA" transform="translate(185,89)"/>
<path d="M0 0 C3.47277395 1.25405726 6.11268218 2.71005828 9 5 C9.66 5.33 10.32 5.66 11 6 C13 9 13 9 12.625 11.1875 C12.41875 11.785625 12.2125 12.38375 12 13 C9.99698146 11.0238076 7.99750133 9.04425526 6 7.0625 C5.42765625 6.49853516 4.8553125 5.93457031 4.265625 5.35351562 C2.82474495 3.92121224 1.41012857 2.46258871 0 1 C0 0.67 0 0.34 0 0 Z " fill="#3277EC" transform="translate(168,161)"/>
<path d="M0 0 C0.66 0 1.32 0 2 0 C6 5.29411765 6 5.29411765 6 9 C4.68 9 3.36 9 2 9 C1.01 9.33 0.02 9.66 -1 10 C-1.9765625 3.9453125 -1.9765625 3.9453125 -2 2 C-1.34 1.34 -0.68 0.68 0 0 Z " fill="#07D8F5" transform="translate(418,110)"/>
<path d="M0 0 C0.33 0.99 0.66 1.98 1 3 C1.66 3 2.32 3 3 3 C3 3.66 3 4.32 3 5 C3.99 4.67 4.98 4.34 6 4 C5.125 9.75 5.125 9.75 4 12 C3.01 11.67 2.02 11.34 1 11 C0.67 7.37 0.34 3.74 0 0 Z " fill="#1B6EFB" transform="translate(65,349)"/>
<path d="M0 0 C11.80987128 11.09412151 11.80987128 11.09412151 13 18 C12.34 18 11.68 18 11 18 C10.71125 17.360625 10.4225 16.72125 10.125 16.0625 C9.17176549 13.84793921 9.17176549 13.84793921 7 13 C6.375 10.4375 6.375 10.4375 6 8 C5.01 7.67 4.02 7.34 3 7 C0 2.66666667 0 2.66666667 0 0 Z " fill="#3B80DB" transform="translate(233,324)"/>
<path d="M0 0 C0.66 0.33 1.32 0.66 2 1 C-1.85427824 5.80074301 -5.06382099 9.7911892 -11 12 C-11.66 12 -12.32 12 -13 12 C-13 11.34 -13 10.68 -13 10 C-12.34 10 -11.68 10 -11 10 C-11 9.34 -11 8.68 -11 8 C-9.88625 7.5875 -8.7725 7.175 -7.625 6.75 C-4.61984238 5.48713876 -4.61984238 5.48713876 -2.6875 2.875 C-2.460625 2.25625 -2.23375 1.6375 -2 1 C-1.34 0.67 -0.68 0.34 0 0 Z " fill="#2EC6F1" transform="translate(421,376)"/>
<path d="M0 0 C0.66 0.66 1.32 1.32 2 2 C0.865625 1.938125 -0.26875 1.87625 -1.4375 1.8125 C-7.53537367 1.80164969 -12.9518488 3.63456587 -18 7 C-18 5.68 -18 4.36 -18 3 C-12.09697795 0.65553734 -6.39979202 -1.04182661 0 0 Z " fill="#3677DC" transform="translate(160,156)"/>
<path d="M0 0 C3.88975419 3.59054233 6.89732195 7.73898882 10 12 C9.67 12.66 9.34 13.32 9 14 C6.0625 12.875 6.0625 12.875 3 11 C2.25 7.875 2.25 7.875 2 5 C1.34 4.67 0.68 4.34 0 4 C0 2.68 0 1.36 0 0 Z " fill="#359BE6" transform="translate(304,215)"/>
<path d="M0 0 C1.9375 0.75 1.9375 0.75 4 2 C4.75 4.125 4.75 4.125 5 6 C4.01 6.495 4.01 6.495 3 7 C3.33 8.32 3.66 9.64 4 11 C3.34 11 2.68 11 2 11 C1.67 9.35 1.34 7.7 1 6 C0.34 6 -0.32 6 -1 6 C-1.625 4.125 -1.625 4.125 -2 2 C-1.34 1.34 -0.68 0.68 0 0 Z " fill="#186CF9" transform="translate(195,184)"/>
<path d="M0 0 C4.42857143 5.14285714 4.42857143 5.14285714 5 9 C3.68 9.33 2.36 9.66 1 10 C1 9.01 1 8.02 1 7 C0.34 7 -0.32 7 -1 7 C-1.33 5.68 -1.66 4.36 -2 3 C-1.34 3 -0.68 3 0 3 C0 2.01 0 1.02 0 0 Z " fill="#1C6CF9" transform="translate(83,384)"/>
<path d="M0 0 C2.35171131 0.59861742 4.6859378 1.26924352 7 2 C8.35439668 4.70879335 8.06501451 7.00933268 8 10 C6.84481082 9.09515208 5.70114594 8.1755794 4.5625 7.25 C3.60537109 6.48429687 3.60537109 6.48429687 2.62890625 5.703125 C0.81189446 3.80332371 0.39576803 2.56413092 0 0 Z " fill="#09BBF8" transform="translate(327,360)"/>
<path d="M0 0 C0 1.65 0 3.3 0 5 C-0.99 5.495 -0.99 5.495 -2 6 C-2.66 5.67 -3.32 5.34 -4 5 C-4.33 6.32 -4.66 7.64 -5 9 C-5.6875 6.1875 -5.6875 6.1875 -6 3 C-4.11242974 0.16864461 -3.46862106 0 0 0 Z " fill="#1F6DF6" transform="translate(142,160)"/>
<path d="M0 0 C2.35981813 0.93578995 4.69631264 1.93347808 7 3 C6.34 4.32 5.68 5.64 5 7 C4.01 6.67 3.02 6.34 2 6 C1.01 6.495 1.01 6.495 0 7 C0.33 6.01 0.66 5.02 1 4 C0.34 3.67 -0.32 3.34 -1 3 C-1.33 3.66 -1.66 4.32 -2 5 C-2 3.68 -2 2.36 -2 1 C-1.34 0.67 -0.68 0.34 0 0 Z " fill="#07DAF6" transform="translate(403,96)"/>
<path d="M0 0 C-1.70370427 2.08230522 -2.63007215 2.92350644 -5.3046875 3.4765625 C-6.57699219 3.55003906 -6.57699219 3.55003906 -7.875 3.625 C-11.33040652 3.87253643 -14.61675208 4.21057549 -18 5 C-18 4.34 -18 3.68 -18 3 C-15.93918639 2.49309416 -13.87626474 1.99475381 -11.8125 1.5 C-10.66394531 1.2215625 -9.51539062 0.943125 -8.33203125 0.65625 C-5.43181171 0.08504615 -2.93903615 -0.13283779 0 0 Z " fill="#1C6FF7" transform="translate(134,84)"/>
<path d="M0 0 C0.66 0 1.32 0 2 0 C2.07654536 4.51617599 2.10228696 8.59085217 1 13 C-0.32 12.34 -1.64 11.68 -3 11 C-2.34 10.01 -1.68 9.02 -1 8 C-0.54860541 5.9507906 -0.54860541 5.9507906 -0.375 3.8125 C-0.25125 2.554375 -0.1275 1.29625 0 0 Z " fill="#15C8FA" transform="translate(337,248)"/>
<path d="M0 0 C4.18811925 3.7353496 6.22520545 6.77421606 8 12 C7.67 12.66 7.34 13.32 7 14 C6.67 13.01 6.34 12.02 6 11 C5.34 11 4.68 11 4 11 C3.32880451 9.5437455 2.66318193 8.08492133 2 6.625 C1.62875 5.81289062 1.2575 5.00078125 0.875 4.1640625 C0 2 0 2 0 0 Z " fill="#1FA3EA" transform="translate(314,229)"/>
<path d="M0 0 C0.99 0.33 1.98 0.66 3 1 C3 3.83967231 2.59732819 6.23735711 2 9 C1.34 9 0.68 9 0 9 C-0.33 7.68 -0.66 6.36 -1 5 C-1.66 5 -2.32 5 -3 5 C-2.67 4.01 -2.34 3.02 -2 2 C-1.34 2 -0.68 2 0 2 C0 1.34 0 0.68 0 0 Z " fill="#176EF8" transform="translate(221,216)"/>
<path d="M0 0 C0.66 0.33 1.32 0.66 2 1 C0.43181728 6.452999 -1.03810217 10.76486783 -5 15 C-4.4836423 10.55932381 -3.3711485 7.75431845 -1 4 C-0.30420546 1.80869466 -0.30420546 1.80869466 0 0 Z " fill="#48D5F1" transform="translate(429,360)"/>
<path d="M0 0 C2.5 1.8125 2.5 1.8125 5 4 C5 4.99 5 5.98 5 7 C5.66 7 6.32 7 7 7 C7.66 8.98 8.32 10.96 9 13 C5.40365256 9.50640535 2.16548033 5.88901869 -1 2 C-0.67 1.34 -0.34 0.68 0 0 Z " fill="#3B8DE9" transform="translate(245,255)"/>
<path d="M0 0 C0.556875 0.70125 1.11375 1.4025 1.6875 2.125 C4.09124732 5.11344261 6.53810432 8.05940238 9 11 C8.67 11.66 8.34 12.32 8 13 C1.84665227 7.01295896 1.84665227 7.01295896 0 4 C0 2.68 0 1.36 0 0 Z " fill="#3876E3" transform="translate(240,129)"/>
<path d="M0 0 C2.58227328 2.26949088 3.71422992 4.25388153 4.8125 7.5 C5.08707031 8.2734375 5.36164063 9.046875 5.64453125 9.84375 C6 12 6 12 4 15 C3.32779649 13.06441401 2.66241923 11.12645628 2 9.1875 C1.62875 8.10855469 1.2575 7.02960938 0.875 5.91796875 C0 3 0 3 0 0 Z " fill="#4F89E3" transform="translate(65,358)"/>
<path d="M0 0 C0.99 0 1.98 0 3 0 C6.28571429 7.42857143 6.28571429 7.42857143 7 11 C5.68 11.33 4.36 11.66 3 12 C2.86722656 11.30132812 2.73445312 10.60265625 2.59765625 9.8828125 C2.42105469 8.97273437 2.24445313 8.06265625 2.0625 7.125 C1.88847656 6.22007812 1.71445313 5.31515625 1.53515625 4.3828125 C1.10036299 2.00043683 1.10036299 2.00043683 0 0 Z M4 8 C5 10 5 10 5 10 Z " fill="#196CF7" transform="translate(237,129)"/>
<path d="M0 0 C0.66666667 2.66666667 1.33333333 5.33333333 2 8 C2.66 8 3.32 8 4 8 C3.67 8.99 3.34 9.98 3 11 C-1 6.25 -1 6.25 -1 4 C-1.99 3.67 -2.98 3.34 -4 3 C-4 2.34 -4 1.68 -4 1 C-2.68 0.67 -1.36 0.34 0 0 Z " fill="#08B2F3" transform="translate(308,329)"/>
<path d="M0 0 C0.66 0.33 1.32 0.66 2 1 C2.33 1.99 2.66 2.98 3 4 C4.49985609 5.66710346 4.49985609 5.66710346 6 7 C4.68 7.33 3.36 7.66 2 8 C1.67 7.34 1.34 6.68 1 6 C0.34 6.66 -0.32 7.32 -1 8 C-1.125 2.25 -1.125 2.25 0 0 Z " fill="#1A71F8" transform="translate(234,327)"/>
<path d="M0 0 C3.11257569 0 5.10765685 0.17361624 8 1 C7.34 2.98 6.68 4.96 6 7 C5.67 6.34 5.34 5.68 5 5 C4.34 5 3.68 5 3 5 C1.375 2.5 1.375 2.5 0 0 Z " fill="#04ADF9" transform="translate(296,320)"/>
<path d="M0 0 C0.99 0.33 1.98 0.66 3 1 C3 1.66 3 2.32 3 3 C3.66 3 4.32 3 5 3 C5.33 4.32 5.66 5.64 6 7 C6.66 7 7.32 7 8 7 C8.33 8.65 8.66 10.3 9 12 C5.74483572 8.83525695 2.67991207 5.67247209 0 2 C0 1.34 0 0.68 0 0 Z " fill="#3F84E3" transform="translate(188,183)"/>
<path d="M0 0 C0.66 0.33 1.32 0.66 2 1 C2 1.66 2 2.32 2 3 C0.68 3.33 -0.64 3.66 -2 4 C-2 4.66 -2 5.32 -2 6 C-4.64 6.66 -7.28 7.32 -10 8 C-7.16569547 4.7457985 -5.31392226 3.4793247 -1 3 C-0.67 2.01 -0.34 1.02 0 0 Z " fill="#1C73F6" transform="translate(241,409)"/>
<path d="M0 0 C1.32 0.33 2.64 0.66 4 1 C4 1.66 4 2.32 4 3 C6.31 3.33 8.62 3.66 11 4 C11 4.99 11 5.98 11 7 C7.31985875 6.29228053 4.23833582 4.87103847 1 3 C0.67 2.01 0.34 1.02 0 0 Z " fill="#07BBF7" transform="translate(352,389)"/>
<path d="M0 0 C1.98 0.66 3.96 1.32 6 2 C5.67 3.32 5.34 4.64 5 6 C4.01 6 3.02 6 2 6 C2 5.01 2 4.02 2 3 C1.01 2.67 0.02 2.34 -1 2 C-0.67 1.34 -0.34 0.68 0 0 Z " fill="#1275F8" transform="translate(248,256)"/>
<path d="M0 0 C2.375 0.3125 2.375 0.3125 5 1 C7 4 7 4 7 7 C7.31088368 8.67099977 7.64080332 10.33871537 8 12 C5.46166551 10.73083275 5.10599099 9.58375191 3.875 7.0625 C3.34519531 5.99708984 3.34519531 5.99708984 2.8046875 4.91015625 C2 3 2 3 2 1 C1.34 0.67 0.68 0.34 0 0 Z " fill="#2071F4" transform="translate(209,208)"/>
<path d="M0 0 C3 0 3 0 5.6875 2.5 C6.450625 3.325 7.21375 4.15 8 5 C7.67 5.66 7.34 6.32 7 7 C4.03 6.505 4.03 6.505 1 6 C0.67 4.02 0.34 2.04 0 0 Z " fill="#1C70F9" transform="translate(216,106)"/>
<path d="M0 0 C3.36720387 1.39332574 4.9859524 2.9789286 7 6 C6.67 6.66 6.34 7.32 6 8 C5.01 7.34 4.02 6.68 3 6 C3 5.34 3 4.68 3 4 C2.34 4 1.68 4 1 4 C0.67 4.66 0.34 5.32 0 6 C0 4.02 0 2.04 0 0 Z " fill="#4986D6" transform="translate(181,258)"/>
<path d="M0 0 C6.94230769 6.75961538 6.94230769 6.75961538 7.125 10.6875 C7.08375 11.450625 7.0425 12.21375 7 13 C5 10 5 10 4.5625 7.875 C4.376875 7.25625 4.19125 6.6375 4 6 C3.01 5.67 2.02 5.34 1 5 C0.67 3.35 0.34 1.7 0 0 Z " fill="#4087E8" transform="translate(267,166)"/>
<path d="M0 0 C2.4750171 1.11431765 4.67883419 2.58150978 7 4 C6.34 5.32 5.68 6.64 5 8 C2 6 2 6 1 3 C0.01 3 -0.98 3 -2 3 C-2 2.34 -2 1.68 -2 1 C-1.34 0.67 -0.68 0.34 0 0 Z " fill="#1869F6" transform="translate(203,96)"/>
<path d="M0 0 C9.41002278 -0.18451025 9.41002278 -0.18451025 14 1 C12 3 12 3 8.125 3.3125 C4.54439038 3.24088781 2.60208598 2.60208598 0 0 Z " fill="#02D6F5" transform="translate(366,85)"/>
<path d="M0 0 C4.6875 3.61328125 4.6875 3.61328125 6 5 C6 5.99 6 6.98 6 8 C3.53199953 6.84826645 1.95216435 5.95216435 0 4 C0 2.68 0 1.36 0 0 Z " fill="#28DBEE" transform="translate(410,99)"/>
<path d="M0 0 C3.63 0 7.26 0 11 0 C9.68 1.32 8.36 2.64 7 4 C6.01 3.34 5.02 2.68 4 2 C1.84725052 2.30840599 1.84725052 2.30840599 0 3 C0 2.01 0 1.02 0 0 Z " fill="#1C6DF8" transform="translate(152,83)"/>
<path d="M0 0 C2.17854707 3.2678206 3.49760034 6.38058265 5 10 C3.35 10 1.7 10 0 10 C0 6.7 0 3.4 0 0 Z " fill="#337EDD" transform="translate(138,327)"/>
<path d="M0 0 C1.98 0 3.96 0 6 0 C6.1875 2.375 6.1875 2.375 6 5 C5.01 5.66 4.02 6.32 3 7 C2.87625 6.030625 2.7525 5.06125 2.625 4.0625 C2.41875 3.051875 2.2125 2.04125 2 1 C1.34 0.67 0.68 0.34 0 0 Z " fill="#1973F7" transform="translate(241,249)"/>
<path d="M0 0 C6.75 1.625 6.75 1.625 9 5 C4.545 4.01 4.545 4.01 0 3 C0 2.01 0 1.02 0 0 Z " fill="#2E75E7" transform="translate(210,101)"/>
<path d="M0 0 C0.0825 0.61875 0.165 1.2375 0.25 1.875 C0.79326091 4.16669871 0.79326091 4.16669871 2.9375 5.0625 C3.618125 5.371875 4.29875 5.68125 5 6 C5.99 7.485 5.99 7.485 7 9 C3.05860922 7.33248852 0.2107188 4.77289351 -3 2 C-2.01 1.34 -1.02 0.68 0 0 Z " fill="#4986E3" transform="translate(87,393)"/>
<path d="M0 0 C3.78717347 1.48781815 5.77407001 3.61988409 8 7 C7.67 7.99 7.34 8.98 7 10 C5.83043409 8.52312468 4.66441854 7.04343707 3.5 5.5625 C2.8503125 4.73878906 2.200625 3.91507812 1.53125 3.06640625 C0 1 0 1 0 0 Z " fill="#4ECEEF" transform="translate(328,364)"/>
<path d="M0 0 C4.875 4.625 4.875 4.625 6 8 C4.68 8 3.36 8 2 8 C1.34 5.36 0.68 2.72 0 0 Z " fill="#1E71F9" transform="translate(191,272)"/>
<path d="M0 0 C1.32 1.65 2.64 3.3 4 5 C3.34 6.32 2.68 7.64 2 9 C1.34 9 0.68 9 0 9 C0 6.03 0 3.06 0 0 Z " fill="#166CF6" transform="translate(183,262)"/>
<path d="M0 0 C1.258125 0.12375 2.51625 0.2475 3.8125 0.375 C4.87404297 0.47941406 4.87404297 0.47941406 5.95703125 0.5859375 C8 1 8 1 11 3 C9.54176788 3.0270043 8.08339325 3.04639787 6.625 3.0625 C5.81289063 3.07410156 5.00078125 3.08570312 4.1640625 3.09765625 C2 3 2 3 0 2 C0 1.34 0 0.68 0 0 Z " fill="#37D4EB" transform="translate(380,85)"/>
<path d="M0 0 C0.66 0.66 1.32 1.32 2 2 C1.67 2.99 1.34 3.98 1 5 C1.66 5.33 2.32 5.66 3 6 C0 6 0 6 -3 4 C-3 3.01 -3 2.02 -3 1 C-2.01 0.67 -1.02 0.34 0 0 Z " fill="#186FFA" transform="translate(91,393)"/>
<path d="M0 0 C4.455 1.98 4.455 1.98 9 4 C9 4.66 9 5.32 9 6 C5.26512223 5.5020163 3.18762365 5.12508244 0 3 C0 2.01 0 1.02 0 0 Z " fill="#3C7BDF" transform="translate(143,337)"/>
<path d="M0 0 C2.93200474 2.85276137 5.64315404 5.65079784 8 9 C7.67 9.66 7.34 10.32 7 11 C6.401875 10.21625 5.80375 9.4325 5.1875 8.625 C3.08914751 5.85425677 3.08914751 5.85425677 0 4 C0 2.68 0 1.36 0 0 Z " fill="#4385DA" transform="translate(214,299)"/>
<path d="M0 0 C0.66 0 1.32 0 2 0 C1.56179109 4.55737263 1.14958831 7.57653445 -2 11 C-1.85892253 9.54119891 -1.71197585 8.08296449 -1.5625 6.625 C-1.48128906 5.81289062 -1.40007813 5.00078125 -1.31640625 4.1640625 C-1 2 -1 2 0 0 Z " fill="#4A86E2" transform="translate(65,137)"/>
<path d="M0 0 C3.24732932 1.62366466 3.70155136 4.75387839 5 8 C4.01 8.33 3.02 8.66 2 9 C0.14223235 5.86501708 -0.20140476 3.62528568 0 0 Z " fill="#4285F1" transform="translate(70,370)"/>
<path d="M0 0 C-0.33 3.3 -0.66 6.6 -1 10 C-2.88343932 6.23312136 -3.22057835 4.97041037 -3 1 C-1 0 -1 0 0 0 Z " fill="#02BEF7" transform="translate(435,336)"/>
<path d="M0 0 C3.37503669 1.1858237 5.64722731 2.27573689 8 5 C7.67 5.99 7.34 6.98 7 8 C5.83035398 6.8572081 4.66435444 5.71068285 3.5 4.5625 C2.8503125 3.92441406 2.200625 3.28632813 1.53125 2.62890625 C0 1 0 1 0 0 Z " fill="#4F8FE7" transform="translate(168,161)"/>
<path d="M0 0 C1.32 0.33 2.64 0.66 4 1 C4 2.32 4 3.64 4 5 C4.66 5 5.32 5 6 5 C5.67 5.99 5.34 6.98 5 8 C5 7.34 5 6.68 5 6 C4.01 5.67 3.02 5.34 2 5 C0.8125 2.4375 0.8125 2.4375 0 0 Z " fill="#4084E4" transform="translate(78,386)"/>
<path d="M0 0 C3.33523252 1.38009621 5.18607951 2.84950652 7 6 C6.67 6.99 6.34 7.98 6 9 C4.99406757 7.8803014 3.9954151 6.7540588 3 5.625 C2.443125 4.99851563 1.88625 4.37203125 1.3125 3.7265625 C0 2 0 2 0 0 Z " fill="#4181E1" transform="translate(181,174)"/>
<path d="M0 0 C3.73487777 0.4979837 5.81237635 0.87491756 9 3 C9 3.66 9 4.32 9 5 C5.22454612 3.90931332 2.52956528 3.0916909 0 0 Z " fill="#50CFF1" transform="translate(353,393)"/>
<path d="M0 0 C5.57142857 5.14285714 5.57142857 5.14285714 6 9 C3.35247996 6.42215154 1.05567935 4.08351902 -1 1 C-0.67 0.67 -0.34 0.34 0 0 Z " fill="#45B8ED" transform="translate(282,303)"/>
<path d="M0 0 C2.5 2.3125 2.5 2.3125 5 5 C5 5.99 5 6.98 5 8 C2.5 6.25 2.5 6.25 0 4 C0 2.68 0 1.36 0 0 Z " fill="#4280D9" transform="translate(203,285)"/>
<path d="M0 0 C0.99 0.33 1.98 0.66 3 1 C3 1.99 3 2.98 3 4 C1.68 4.33 0.36 4.66 -1 5 C-1.33 3.68 -1.66 2.36 -2 1 C-1.34 0.67 -0.68 0.34 0 0 Z " fill="#05A6F9" transform="translate(322,243)"/>
<path d="M0 0 C1.32 0 2.64 0 4 0 C4.33 2.31 4.66 4.62 5 7 C4.34 6.67 3.68 6.34 3 6 C3 5.34 3 4.68 3 4 C2.01 3.67 1.02 3.34 0 3 C0 2.01 0 1.02 0 0 Z " fill="#1971F8" transform="translate(223,225)"/>
<path d="M0 0 C2.96404505 2.80804268 5.44499019 5.18315774 7 9 C3.46352496 7.32482761 2.2088437 6.50719183 0.6875 2.8125 C0.460625 1.884375 0.23375 0.95625 0 0 Z " fill="#3B81D5" transform="translate(260,157)"/>
<path d="M0 0 C3.43595166 1.52708963 6.11912454 3.59927045 9 6 C5.21213403 5.4739075 2.82847776 4.61896089 0 2 C0 1.34 0 0.68 0 0 Z " fill="#3EDBEE" transform="translate(401,93)"/>
<path d="M0 0 C0 0.99 0 1.98 0 3 C-0.99 3.33 -1.98 3.66 -3 4 C-3.99 2.68 -4.98 1.36 -6 0 C-3.50907189 -1.24546405 -2.58919267 -0.7767578 0 0 Z " fill="#206BEA" transform="translate(172,84)"/>
<path d="M0 0 C-0.66 1.65 -1.32 3.3 -2 5 C-2.66 4.67 -3.32 4.34 -4 4 C-4.99 3.67 -5.98 3.34 -7 3 C-7 2.34 -7 1.68 -7 1 C-4.53721199 -0.231394 -2.7204945 -0.07159196 0 0 Z " fill="#176AF6" transform="translate(146,83)"/>
</svg>
